<?xml version="1.0" encoding="utf-8" ?>
<svg xmlns="http://www.w3.org/2000/svg" xmlns:xlink="http://www.w3.org/1999/xlink" width="512" height="512">
	<path fill="#fff" fill-opacity="0.98431373" d="M0 29.0329C0.0607459 28.9052 0.123073 28.7783 0.182238 28.6499C1.27612 26.276 1.53432 23.4493 2.51282 20.9961C5.64916 13.1331 12.4074 6.57921 20.237 3.49551C22.2701 2.69478 24.7349 1.64875 26.9242 1.58008C43.812 1.05034 60.6621 1.10238 77.5596 1.10175L136.639 1.09993L323.036 1.0988L430.392 1.1019L463.069 1.10365C470.421 1.10416 477.94 0.811019 485.254 1.66765C490.96 2.33598 497.401 5.91813 501.553 9.8106C508.162 16.0076 509.31 22.1928 512 30.3152L512 263.291C511.345 267.922 511.747 274.381 511.707 279.235L511.52 313.515L511.428 355.485C511.412 362.078 510.94 370.462 511.484 376.882C511.347 383.859 511.661 390.875 511.326 397.84C510.508 406.768 507.203 415.62 500.13 421.505C495.836 425.078 490.89 427.246 485.592 428.85C485.185 434.424 485.534 439.399 480.901 443.428C479.645 444.521 477.685 446.006 476.032 446.268C471.023 447.06 465.55 446.668 460.476 446.668L434.186 446.667L369.25 446.658C356.992 446.657 344.716 446.513 332.462 446.73C332.225 450.012 332.239 453.22 332.438 456.503L347.795 456.459C358.545 456.432 366.52 456.38 374.68 464.581C381.978 471.917 382.321 479.696 382.251 489.425C382.226 492.995 382.299 496.561 382.288 500.128C382.278 503.431 381.53 506.164 379.117 508.575C377.648 510.042 375.871 510.862 374.177 512L136.826 512C135.023 510.924 133.172 509.607 131.767 508.036C130.585 506.715 129.632 505.132 129.142 503.423C127.99 499.402 128.258 488.806 128.494 484.245C128.889 476.583 131.773 468.536 137.633 463.375C146.322 455.723 153.925 456.444 164.602 456.438C169.216 456.435 173.886 456.275 178.489 456.548C178.485 447.599 178.13 438.528 178.518 429.596C174.066 429.817 169.487 429.562 165.018 429.557L136.739 429.529L117.067 429.568C113.524 429.585 109.819 429.823 106.293 429.504C103.105 429.216 101.569 427.5 99.6241 425.176C99.5174 424.454 99.3967 423.72 99.3478 422.992C99.1999 420.786 99.7364 418.497 101.232 416.818C102.289 415.63 103.969 414.72 105.547 414.506C109.647 413.95 114.417 414.458 118.587 414.465L146.767 414.472L228.001 414.466L253.804 414.474C258.341 414.482 262.929 414.665 267.46 414.485L268.47 414.425C268.86 413.738 268.576 392.258 268.222 390.31C270.074 386.705 272.57 383.399 276.585 382.068C279.875 380.977 284.842 381.018 288.273 381.452C288.292 377.136 288.363 372.813 288.296 368.497C282.457 368.775 276.539 368.566 270.689 368.556L239.699 368.55L142.411 368.549L57.1638 368.548L29.4544 368.547C24.5725 368.547 19.5642 368.771 14.6976 368.478C14.4875 373.473 14.5265 378.478 14.5067 383.477C14.4848 389.032 13.9742 395.363 15.4384 400.771C16.2253 403.678 17.8157 406.471 19.8648 408.671C23.3532 412.418 27.7796 414.383 32.8798 414.496C40.3026 414.662 47.7586 414.433 55.186 414.469C57.6473 414.481 60.496 414.155 62.8915 414.634C64.1644 414.888 65.4389 415.767 66.3116 416.704C67.9194 418.429 68.517 420.794 68.323 423.108C68.1718 424.913 67.4522 426.618 66.0414 427.795C64.9377 428.715 63.6049 429.197 62.1978 429.408C58.0793 430.025 53.3506 429.575 49.1579 429.571C42.5715 429.565 35.5401 430.054 29.0205 429.285C19.8448 428.201 12.4694 423.717 6.79826 416.467C3.41207 412.138 1.66601 407.105 0 401.944L0 29.0329ZM14.5635 353.44L182.574 353.388L239.509 353.391L257.998 353.393C261.123 353.394 264.38 353.214 267.491 353.465L267.476 325.034C267.474 320.41 266.905 315.09 267.806 310.579C268.348 307.868 269.615 305.225 271.612 303.29C275.891 299.145 281.665 299.308 287.188 299.506Q287.772 299.528 288.355 299.565C288.258 294.233 288.221 288.869 288.321 283.537C282.207 283.676 276.453 284.108 271.666 279.527C269.831 277.77 268.403 275.428 267.879 272.924C268.388 272.764 268.34 272.753 268.669 272.393L268.638 272.091L268.592 271.588C268.171 267.129 268.522 262.389 268.531 257.901Q268.572 244.939 268.475 231.977C268.501 230.274 268.457 228.707 268.202 227.021C268.895 225.243 270.531 222.022 272.295 221.152C272.431 221.146 272.568 221.144 272.704 221.134C274.832 220.98 276.646 218.835 279.018 218.722C282.453 218.559 286.078 218.942 289.543 218.946L319.387 218.954L362.173 218.953C368.539 218.945 374.968 218.69 381.327 218.843C382.025 218.86 382.559 219.096 383.204 219.319C384.003 219.595 384.589 219.274 385.388 219.059C385.423 219.397 385.358 219.903 385.626 220.133C386.084 220.526 387.052 220.756 387.388 221.143C387.889 221.718 388.13 223.728 388.232 224.507C388.418 225.928 388.454 227.624 387.526 228.814C386.414 230.24 384.332 230.693 383.975 232.502C376.86 232.89 369.528 232.544 362.391 232.542L320.22 232.534L294.146 232.54C290.335 232.545 286.163 232.981 282.406 232.508C281.973 238.495 282.187 244.586 282.191 250.588C282.195 256.548 281.977 262.614 282.437 268.553C295.214 268.08 308.127 268.457 320.917 268.459L392.51 268.458L443.141 268.464C452.214 268.452 461.525 267.954 470.562 268.585C470.144 262.776 470.497 256.71 470.499 250.876C470.502 244.858 470.164 238.673 470.544 232.676Q456.101 232.445 441.656 232.549C436.679 232.562 430.674 233.106 425.798 232.323C424.278 230.977 422.91 229.727 421.627 228.141C421.261 225.822 421.131 223.995 422.041 221.791L422.64 221.675C423.4 220.567 425.452 219.004 426.782 218.804C429.22 218.438 432.414 218.934 434.925 218.945Q451.81 219.122 468.693 218.788C470.623 218.767 473.39 219.565 475.184 219.194C475.414 219.147 475.935 218.709 476.159 218.564C479.968 220.063 482.718 222.346 484.385 226.191C484.985 227.576 485.162 228.794 485.265 230.285C485.62 235.412 485.812 271.798 484.744 274.547C483.391 278.029 480.362 281.097 476.909 282.467C473.508 283.817 469.096 283.816 465.484 283.591C464.884 288.715 464.988 294.397 465.421 299.532C470.903 299.316 476.644 299.135 480.997 303.107C484.13 305.967 485.261 309.699 485.375 313.796C485.744 326.959 484.613 340.248 485.376 353.399C488.986 353.44 492.932 353.073 496.493 353.474L496.49 186.191L496.49 130.603C496.49 121.346 496.146 111.956 496.518 102.714L197.29 102.66L77.9067 102.662C56.8584 102.663 35.6924 102.209 14.6557 102.768C14.7592 107.636 14.5613 112.558 14.5578 117.434L14.5508 153.594L14.5503 265.363L14.5537 326.367L14.573 344.634C14.5807 347.516 14.8471 350.583 14.5635 353.44ZM15.4429 87.601C33.5311 86.9739 51.7867 87.4503 69.8888 87.4499L171.189 87.451L477.063 87.4515C483.538 87.4437 490.062 87.2753 496.53 87.6111C496.292 74.5097 496.5 61.3724 496.506 48.2675C496.509 43.2554 497.095 35.1559 496.086 30.4869Q495.951 29.8487 495.769 29.2225Q495.586 28.5964 495.357 27.9858Q495.127 27.3752 494.852 26.7837Q494.578 26.1923 494.259 25.6233Q493.94 25.0543 493.579 24.5111Q493.218 23.9679 492.817 23.4535Q492.416 22.9392 491.977 22.4566Q491.538 21.9741 491.064 21.5261C486.642 17.2946 482.171 16.3153 476.217 15.8814C469.229 15.3719 462.052 15.6918 455.044 15.6967L417.287 15.7087L299.31 15.7072L124.011 15.7086L66.8734 15.7063C57.2073 15.6997 47.437 15.385 37.7807 15.6982C37.0793 15.7209 36.3463 15.7211 35.6548 15.8396C28.5663 16.7018 23.6616 17.6826 19.0389 23.6278C17.0744 26.1543 15.8998 29.0216 15.4032 32.1767C14.9758 34.8916 15.1583 37.7888 15.165 40.5346L15.2023 54.3097L15.2022 74.121C15.2042 78.5979 15.1 83.137 15.4429 87.601ZM282.419 350.501C297.596 350.242 312.805 350.46 327.985 350.464L412.66 350.475L452.46 350.472C457.119 350.464 466.342 349.943 470.47 350.567Q470.579 332.589 470.451 314.611L332.307 314.551L296.146 314.552C292.621 314.552 285.482 315.1 282.31 314.419C282.467 317.019 282.223 319.705 282.219 322.319C282.202 331.634 281.749 341.22 282.419 350.501ZM470.616 431.56C470.187 425.324 470.493 418.921 470.489 412.665C470.486 407.37 470.154 401.843 470.545 396.575C456.315 396.79 442.038 396.537 427.802 396.535L338.094 396.531L299.131 396.535C295.045 396.542 285.901 397.039 282.378 396.447Q282.086 407.447 282.194 418.451C282.195 422.836 282.068 427.279 282.413 431.651C291.181 430.956 300.314 431.455 309.125 431.459L358.383 431.459L431.595 431.469C444.567 431.471 457.655 431.107 470.616 431.56ZM485.802 413.232C487.541 411.449 489.739 410.335 491.465 408.576C497.195 402.292 496.528 393.48 496.505 385.569C496.488 379.899 496.265 374.152 496.515 368.491C490.35 368.817 484.102 368.545 477.926 368.559C474.5 368.567 468.371 369.091 465.336 368.4C465.488 372.767 465.083 377.064 465.39 381.455C470.761 381.117 476.838 380.85 481.075 384.72C484.157 387.535 485.212 391.06 485.364 395.088C485.584 400.957 484.717 407.488 485.802 413.232ZM302.607 381.318L401.685 381.289L434.083 381.285C439.497 381.284 445.126 380.961 450.517 381.369L451.428 381.374C451.517 381.08 451.54 381.041 451.581 380.688C451.801 378.802 451.594 366.924 450.547 365.693C447.687 365.075 443.363 365.539 440.373 365.545L417.339 365.562L341.079 365.558L316.176 365.555C311.709 365.554 307.144 365.751 302.691 365.487C302.409 370.779 302.809 376.049 302.607 381.318ZM450.503 283.698C447.408 283.066 441.843 283.526 438.445 283.527L410.408 283.54L302.594 283.546C302.754 288.811 302.579 294.219 302.512 299.494L414.402 299.466L440.367 299.488C442.978 299.491 448.216 299.935 450.454 299.394C450.889 299.427 451.126 299.416 451.569 299.331C451.991 297.163 451.57 285.41 450.503 283.698ZM267.551 429.735C263.83 429.002 253.21 429.561 248.828 429.56L212.376 429.547C206.123 429.548 199.785 429.764 193.543 429.534C192.941 438.485 193.321 447.544 193.45 456.509L276.822 456.473L303.634 456.471C308.2 456.466 312.958 456.164 317.493 456.549C317.474 453.277 317.422 449.994 317.51 446.724Q304.982 446.604 292.454 446.681C287.863 446.688 282.293 447.291 277.846 446.232C275.444 445.661 273.246 444.146 271.533 442.399C269.912 440.747 268.578 438.789 267.866 436.574C268.34 436.42 268.126 436.543 268.503 436.197C268.614 434.071 269.016 431.401 267.551 429.735ZM355.875 497.465C359.729 497.456 363.68 497.273 367.52 497.568C367.42 493.023 368.197 484.513 367.075 480.516C366.49 478.433 365.26 476.545 363.703 475.056C361.972 473.4 359.672 471.88 357.257 471.624C354.701 471.352 351.994 471.533 349.42 471.535L334.963 471.552L287.938 471.559L199.312 471.562C184.729 471.562 170.076 471.238 155.5 471.554C155.203 471.561 154.909 471.583 154.613 471.605C151.28 472.196 148.09 474.114 146.16 476.907C142.101 482.783 143.208 490.754 143.466 497.499L355.875 497.465Z"/>
	<path fill="#fff" fill-opacity="0.97647059" d="M220.599 160.162C220.345 158.064 219.991 155.51 220.98 153.54C221.655 152.196 223.287 150.85 224.703 150.369C225.127 150.225 225.519 150.091 225.925 149.897L226.341 149.696C232.506 151.004 240.775 150.353 247.174 150.289L269.5 150.251C305.366 150.254 341.275 149.886 377.135 150.416C373.092 150.767 368.82 150.499 364.756 150.5L340.036 150.502L262.076 150.501L240.524 150.497C236.816 150.495 232.888 150.223 229.207 150.638C230.441 151.338 360.389 151.01 373.205 150.924C375.218 150.911 386.713 150.567 387.573 150.996C387.717 151.067 387.8 151.402 387.838 151.535C387.861 151.612 387.879 151.691 387.9 151.769L388.417 151.399L388.041 151.027L388.456 151.28L388.491 151.863L388.882 152.146C389.484 151.975 389.776 151.848 390.223 151.407C390.89 152.05 391.477 152.779 392.083 153.48C392.222 154.851 392.489 156.042 392.899 157.355C392.4 159.563 391.988 162.191 389.945 163.542C388.666 164.388 387.454 164.493 385.969 164.53C373.431 164.841 360.827 164.559 348.281 164.558L274.524 164.555L241.538 164.561C236.596 164.569 229.478 165.102 224.729 164.312C223.221 162.989 221.869 161.725 220.599 160.162Z"/>
	<path fill="#fff" fill-opacity="0.97647059" d="M121.615 218.565C126.179 218.167 130.932 218.43 135.522 218.431L160.724 218.438L192.798 218.462C198.309 218.459 203.926 218.192 209.428 218.482C211.395 218.586 213.433 218.871 215.212 219.764C216.873 220.598 218.076 221.975 218.656 223.743C219.307 225.727 219.174 228.178 218.135 230.006C217.019 231.969 215.622 232.86 213.519 233.489C206.503 233.836 199.333 233.549 192.303 233.547L152.121 233.535L134.501 233.556C130.767 233.58 124.43 234.192 120.955 233.242C118.984 232.702 117.128 231.466 116.129 229.649Q115.958 229.336 115.821 229.008Q115.683 228.68 115.58 228.339Q115.477 227.998 115.409 227.648Q115.342 227.298 115.311 226.944Q115.279 226.589 115.285 226.233Q115.29 225.877 115.332 225.523Q115.374 225.17 115.452 224.822Q115.53 224.475 115.643 224.137C116.635 221.266 119.051 219.824 121.615 218.565Z"/>
	<path fill="#fff" fill-opacity="0.97254902" d="M120.098 127.523C120.386 127.561 120.674 127.605 120.959 127.668C122.476 128.007 124.006 128.705 125.235 129.651C127.943 131.735 148.986 152.834 150.251 154.967C151.227 156.613 151.534 159.099 151 160.937C150.512 162.614 149.047 164.378 147.92 165.692C144.884 169.229 141.302 172.466 138.003 175.763C134.328 179.435 130.722 183.356 126.774 186.731C125.668 187.678 124.499 188.444 123.253 189.193C121.658 189.688 119.909 189.859 118.262 189.511C116.565 189.152 115.214 188.082 114.325 186.614C112.654 183.855 113.042 181.422 113.694 178.466C119.706 171.466 127.178 165.687 133.213 158.704C129.968 156.016 127.037 152.655 124.045 149.674C121.229 146.866 118.087 144.149 115.528 141.116C114.749 140.192 114.049 139.194 113.567 138.08C112.75 136.191 112.641 133.977 113.506 132.084C114.785 129.282 117.45 128.493 120.098 127.523Z"/>
	<path fill="#fff" fill-opacity="0.97647059" d="M181.734 281.562C185.453 281.312 189.244 281.441 192.971 281.441L212.436 281.45L236.563 281.464C240.337 281.465 244.158 281.302 247.925 281.451C249.01 281.494 250.1 281.622 251.106 282.051C253.228 282.957 254.705 284.506 255.507 286.672C256.253 288.684 256.234 290.807 255.276 292.745C254.228 294.863 252.665 295.819 250.488 296.494C245.439 296.754 240.283 296.543 235.225 296.541L206.26 296.531L190.04 296.57C186.694 296.586 183.115 296.854 179.816 296.329C178.282 294.982 176.905 293.737 175.611 292.145C175.309 289.99 175.035 287.705 175.992 285.663C176.744 284.057 178.231 282.88 179.866 282.274L181.734 281.562Z"/>
	<path fill="#fff" fill-opacity="0.97254902" d="M64.1098 127.512C64.1791 127.517 64.2489 127.519 64.3179 127.528C66.2597 127.784 68.6356 128.719 69.848 130.301C71.7506 132.784 71.2525 135.998 70.9369 138.877C68.1485 142.635 54.8828 156.857 51.3905 158.656C54.3376 161.317 57.0451 164.352 59.8672 167.157C63.0449 170.315 66.6608 173.451 69.4547 176.945C71.8613 179.955 71.365 182.368 70.9536 185.983C69.9314 187.054 68.8538 188.251 67.5288 188.942C65.3752 190.065 63.2405 189.8 61.006 189.061C56.9522 186.454 50.7235 179.403 47.1227 175.812C43.4201 172.12 36.9971 166.592 34.2311 162.391C32.8189 160.247 33.2805 157.782 33.7557 155.411C37.9473 150.402 43.3094 145.675 47.9452 141.026C51.1017 137.86 56.8548 131.382 60.2895 129.018C61.326 128.305 62.9223 127.968 64.1098 127.512Z"/>
	<path fill="#fff" fill-opacity="0.97647059" d="M90.0868 250.609C93.8684 250.214 97.8329 250.44 101.637 250.447L121.148 250.466L145.42 250.458C150.229 250.456 155.123 250.253 159.913 250.68C161.856 251.918 163.337 253.218 164.029 255.491C164.616 257.416 164.563 259.953 163.579 261.744C162.428 263.837 160.724 264.523 158.562 265.168C157.756 265.611 156.432 265.521 155.535 265.542C141.507 265.863 127.409 265.556 113.374 265.561L99.7556 265.585C97.3751 265.589 94.7725 265.78 92.4249 265.43C90.3993 265.128 87.9925 264.232 86.7645 262.518C85.0517 260.127 85.2402 257.234 85.663 254.492C87.0063 252.967 88.1595 251.412 90.0868 250.609Z"/>
	<path fill="#fff" fill-opacity="0.97647059" d="M296.703 182.567C300.711 182.302 304.8 182.444 308.818 182.442L329.432 182.438L348.589 182.442C352.275 182.442 356.065 182.28 359.738 182.553C361.525 182.686 363.722 182.982 365.343 183.771C366.776 184.469 367.709 185.924 368.181 187.397C368.469 188.293 368.821 189.126 369.196 189.989C368.733 191.66 368.33 193.514 367.391 194.99C366.395 196.558 365.055 197.079 363.312 197.493C358.332 197.758 353.259 197.56 348.267 197.556L319.986 197.535L304.699 197.576C301.443 197.591 297.936 197.86 294.728 197.315C293.222 195.995 291.865 194.732 290.589 193.179C290.347 191.108 290.054 188.979 290.853 186.982C291.919 184.32 294.273 183.54 296.703 182.567Z"/>
	<path fill="#fff" fill-opacity="0.97647059" d="M102.12 127.522C103.583 127.66 105.466 128.329 106.647 129.186C108.172 130.293 109.075 131.708 109.34 133.58C109.596 135.394 109.425 137.255 108.944 139.017C107.962 142.61 90.8347 185.779 89.4003 187.471C88.1843 188.905 85.9307 189.518 84.145 189.681C83.1753 189.678 82.1803 189.73 81.2794 189.319C79.1563 188.35 77.3422 186.529 76.5929 184.299C76.0172 182.585 76.358 181.069 76.8223 179.379C77.5913 176.579 78.8662 173.839 79.9478 171.144L85.4955 157.286C88.771 149.05 91.5291 140.454 95.3324 132.448C96.3655 130.273 97.6313 129.081 99.9281 128.29L102.12 127.522Z"/>
	<path fill="#fff" fill-opacity="0.98039216" d="M397.65 243.559C401.23 243.311 404.874 243.439 408.464 243.443L426.024 243.453C434.572 243.458 444.922 242.951 453.243 243.599C454.472 243.695 455.57 244.422 456.64 244.993C457.564 246.618 458.144 247.955 458.349 249.846C458.656 252.683 457.835 254.738 456.11 256.893C455.139 257.197 454.174 257.49 453.188 257.74C448.48 259.25 442.262 258.56 437.329 258.56L420.49 258.555C414.125 258.557 407.569 258.942 401.231 258.493C397.731 258.246 395.843 256.804 393.644 254.258C393.215 252.108 392.799 250.215 393.426 248.037C394.089 245.732 395.669 244.63 397.65 243.559Z"/>
	<path fill="#fff" fill-opacity="0.97647059" d="M105.749 281.563C113.507 281.188 121.381 281.44 129.152 281.441C137.628 281.442 146.171 281.219 154.639 281.494C157.269 281.579 160.753 281.84 162.584 283.902C164.83 286.431 164.221 289.905 163.953 292.984C162.246 294.73 160.904 296.099 158.412 296.569L121.645 296.526C116.34 296.534 108.862 297.137 103.802 296.329C102.265 294.987 100.895 293.735 99.6033 292.144L99.4941 291.247C99.2638 289.386 99.1622 287.502 99.9514 285.744C101.071 283.251 103.371 282.428 105.749 281.563Z"/>
	<path fill="#fff" fill-opacity="0.97647059" d="M43.6165 218.564C46.9083 218.273 50.3183 218.432 53.6236 218.431L70.6947 218.431L85.8561 218.441C89.0125 218.444 92.2768 218.293 95.4119 218.671C98.4195 219.034 100.167 220.133 102.003 222.439C102.367 225.105 102.32 227.363 102.032 230.04C100.534 231.984 99.1587 232.982 96.7485 233.533C85.1021 233.884 73.3465 233.518 61.6884 233.514C57.4739 233.513 46.2353 234.205 42.6329 233.266C40.6427 232.747 38.7831 230.73 37.8629 228.965C37.0785 227.46 36.943 225.806 37.5198 224.205C38.5471 221.354 41.0481 219.832 43.6165 218.564Z"/>
	<path fill="#fff" fill-opacity="0.97647059" d="M167.307 185.188C168.483 185.099 169.707 184.116 170.884 183.796C171.793 183.549 185.645 183.906 188.105 183.908L215.907 183.89C218.525 183.877 221.162 183.912 223.777 183.81C224.628 183.777 225.52 183.559 226.364 183.618C227.31 183.685 228.934 184.28 229.729 184.796C229.832 184.862 229.931 184.933 230.033 185.002C230.7 184.939 230.72 184.841 231.216 184.374C232.745 185.83 233.894 187.698 233.994 189.862C234.091 191.963 233.257 193.644 232.442 195.51C231.291 196.271 230.151 197.15 228.761 197.381C226.099 197.824 223.086 197.589 220.386 197.58L205.507 197.534L182.749 197.56C178.504 197.567 174.155 197.772 169.925 197.441C167.797 195.645 165.62 193.801 165.323 190.828C165.12 188.81 165.717 186.955 166.905 185.345L167.307 185.188Z"/>
	<path fill="#fff" fill-opacity="0.97647059" d="M43.6022 281.567C50.4888 280.997 57.7372 281.449 64.6693 281.45C70.4975 281.451 77.9827 281.06 83.6165 281.486C84.6392 281.564 85.5493 281.771 86.478 282.207C88.5218 283.167 90.1078 284.841 90.8154 287.002C91.4433 288.919 91.199 290.978 90.2995 292.765C89.2496 294.851 87.6402 295.843 85.4865 296.496C76.1509 296.957 66.5914 296.529 57.2363 296.507C53.4788 296.498 46.4864 297.176 43.2718 296.343C41.2105 295.808 39.1833 294.545 38.1312 292.647Q37.9589 292.335 37.8199 292.007Q37.6809 291.678 37.5767 291.337Q37.4724 290.996 37.4041 290.646Q37.3357 290.297 37.3039 289.941Q37.2722 289.586 37.2774 289.23Q37.2826 288.873 37.3247 288.519Q37.3668 288.165 37.4454 287.818Q37.5239 287.47 37.6381 287.132C38.6301 284.266 41.0371 282.82 43.6022 281.567Z"/>
	<path fill="#fff" fill-opacity="0.97647059" d="M299.109 243.624C304.956 242.953 312.123 243.439 318.084 243.439C325.573 243.44 333.457 242.956 340.9 243.672C342.587 244.749 343.729 245.797 344.561 247.67C345.423 249.612 345.481 252.056 344.633 254.017C343.772 256.008 342.06 257.018 340.108 257.747C339.099 258.085 338.153 258.348 337.086 258.435C331.513 258.891 325.688 258.564 320.084 258.574C314.455 258.585 308.518 258.968 302.922 258.447C300.517 258.223 297.224 257.254 295.676 255.263C293.952 253.046 294.264 250.078 294.663 247.491C295.957 245.955 297.193 244.385 299.109 243.624Z"/>
	<path fill="#fff" fill-opacity="0.97647059" d="M218.625 250.56C222.522 250.238 245.629 250.051 248.342 250.898C250.046 251.43 251.408 252.613 252.219 254.196C253.163 256.039 253.268 258.164 252.639 260.122C251.793 262.753 250.246 263.943 247.897 265.109C247.083 265.375 246.292 265.496 245.441 265.544C240.035 265.847 234.528 265.518 229.11 265.527C226.377 265.531 222.989 266.1 220.352 265.511C217.923 264.968 215.543 263.141 214.35 260.969C213.397 259.235 213.245 257.352 213.882 255.48C214.752 252.918 216.354 251.746 218.625 250.56Z"/>
	<path fill="#fff" fill-opacity="0.97647059" d="M169.763 164.329C167.998 162.713 166.38 161.395 165.555 159.026C164.978 157.368 165.023 155.594 165.855 154.028C167.322 151.267 169.972 150.529 172.71 149.604C177.364 151.666 185.984 149.296 191.1 150.492C186.736 150.667 179.012 149.945 175.22 150.656C178.678 151.148 182.137 150.93 185.617 150.898C190.875 150.85 196.11 150.782 201.361 151.103C201.431 151.397 201.49 151.694 201.539 151.993C202.092 152.141 202.214 152.107 202.712 151.805C202.881 151.702 203.075 151.514 203.224 151.376C204.307 152.406 204.979 153.37 205.538 154.766C206.666 157.583 205.593 159.913 204.466 162.491C203.446 163.228 202.222 164.113 200.967 164.349C197.004 165.095 192.126 164.559 188.049 164.566C182.688 164.574 174.886 165.12 169.763 164.329Z"/>
	<path fill="#fff" fill-opacity="0.97647059" d="M250.689 182.566C255.846 182.214 272.541 181.805 276.786 183.595C279.666 184.809 280.166 187.332 281.185 189.971C280.738 191.693 280.358 193.565 279.362 195.069C278.362 196.582 277.015 197.105 275.312 197.494C270.488 197.742 265.558 197.568 260.723 197.579C256.847 197.588 252.57 197.946 248.748 197.317C247.22 195.991 245.874 194.731 244.59 193.163C244.32 191.173 244.074 189.029 244.805 187.102C245.861 184.322 248.218 183.616 250.689 182.566Z"/>
	<path fill="#fff" fill-opacity="0.97647059" d="M42.6162 250.566C46.8605 250.185 51.2971 250.444 55.5645 250.437C59.6894 250.43 64.1839 250.042 68.2433 250.633C70.5612 250.971 71.8431 252.675 73.1042 254.451C73.3945 257.093 73.2085 259.496 72.9425 262.125C71.2296 263.713 69.7444 264.539 67.5286 265.218C65.99 265.785 49.232 265.752 46.5239 265.602C45.4755 265.544 44.4287 265.397 43.4222 265.091C41.2411 264.429 39.0702 263.022 38.0222 260.939C37.1631 259.232 37.1156 257.139 37.7238 255.344C38.5492 252.908 40.4659 251.69 42.6162 250.566Z"/>
	<path fill="#fff" fill-opacity="0.97647059" d="M181.543 250.573C185.583 250.245 195.328 250.024 199.139 250.614C201.498 250.979 202.779 252.65 204.1 254.437C204.397 257.102 204.204 259.49 203.915 262.152C202.571 263.397 201.427 264.215 199.683 264.838C199.638 264.854 199.592 264.869 199.547 264.886C199.332 264.966 199.119 265.051 198.901 265.122C195.757 266.155 183.896 265.915 180.997 264.387C178.284 262.956 177.419 260.643 176.57 257.893C177.673 254.286 178.131 252.556 181.543 250.573Z"/>
	<path fill="#fff" fill-opacity="0.97647059" d="M360.649 243.558C366.031 243.18 372.619 243.131 377.957 243.681C379.726 244.773 380.961 245.996 381.73 247.977C382.474 249.894 382.441 252.257 381.59 254.135C380.701 256.096 379.064 257.026 377.13 257.75C377.016 257.789 376.903 257.828 376.789 257.865C372.859 259.127 363.671 259.277 360.047 257.323C357.298 255.839 356.447 253.708 355.568 250.901L355.787 250.173C356.801 246.844 357.534 245.216 360.649 243.558Z"/>
	<path fill="#fff" fill-opacity="0.91764706" d="M226.341 149.696C230.431 148.872 238.24 149.407 242.743 149.408L277.899 149.422L347.997 149.421L370.126 149.42C374.854 149.417 379.628 149.295 384.35 149.553C386.348 149.662 388.342 150.145 390.029 151.271C390.095 151.315 390.158 151.362 390.223 151.407C389.776 151.848 389.484 151.975 388.882 152.146L388.491 151.863L388.456 151.28L388.041 151.027L388.417 151.399L387.9 151.769C387.879 151.691 387.861 151.612 387.838 151.535C387.8 151.402 387.717 151.067 387.573 150.996C386.713 150.567 375.218 150.911 373.205 150.924C360.389 151.01 230.441 151.338 229.207 150.638C232.888 150.223 236.816 150.495 240.524 150.497L262.076 150.501L340.036 150.502L364.756 150.5C368.82 150.499 373.092 150.767 377.135 150.416C341.275 149.886 305.366 150.254 269.5 150.251L247.174 150.289C240.775 150.353 232.506 151.004 226.341 149.696Z"/>
	<path fill="#fff" fill-opacity="0.91764706" d="M167.307 185.188C168.392 183.996 170.342 182.907 171.929 182.621C174.365 182.183 177.178 182.414 179.659 182.414L193.144 182.413L214.353 182.422C218.381 182.424 222.596 182.207 226.595 182.645C228.16 182.816 229.926 183.474 231.216 184.374C230.72 184.841 230.7 184.939 230.033 185.002C229.931 184.933 229.832 184.862 229.729 184.796C228.934 184.28 227.31 183.685 226.364 183.618C225.52 183.559 224.628 183.777 223.777 183.81C221.162 183.912 218.525 183.877 215.907 183.89L188.105 183.908C185.645 183.906 171.793 183.549 170.884 183.796C169.707 184.116 168.483 185.099 167.307 185.188Z"/>
	<path fill="#fff" fill-opacity="0.91764706" d="M172.71 149.604C177.376 149.23 182.15 149.401 186.832 149.403C190.793 149.405 195.054 149.116 198.968 149.778C200.514 150.04 201.908 150.506 203.224 151.376C203.075 151.514 202.881 151.702 202.712 151.805C202.214 152.107 202.092 152.141 201.539 151.993C201.49 151.694 201.431 151.397 201.361 151.103C196.11 150.782 190.875 150.85 185.617 150.898C182.137 150.93 178.678 151.148 175.22 150.656C179.012 149.945 186.736 150.667 191.1 150.492C185.984 149.296 177.364 151.666 172.71 149.604Z"/>
	<path fill="#fff" fill-opacity="0.97647059" d="M54.9567 29.7648Q55.4929 29.7594 56.0288 29.7802Q56.5646 29.801 57.0988 29.8478Q57.633 29.8947 58.1643 29.9675Q58.6956 30.0404 59.2227 30.139Q59.7498 30.2376 60.2715 30.3618Q60.7932 30.486 61.3082 30.6355Q61.8232 30.785 62.3303 30.9594Q62.8374 31.1337 63.3354 31.3326Q63.8334 31.5315 64.3212 31.7544Q64.8089 31.9774 65.2852 32.2238Q65.7615 32.4702 66.2252 32.7395Q66.6889 33.0089 67.1389 33.3005Q67.589 33.5921 68.0243 33.9053Q68.4596 34.2185 68.8791 34.5525Q69.2986 34.8865 69.7014 35.2406Q70.1041 35.5947 70.4891 35.9679Q70.8741 36.3412 71.2405 36.7328Q71.6069 37.1244 71.9537 37.5334Q72.3006 37.9423 72.6271 38.3677Q72.9536 38.7931 73.259 39.2339Q73.5644 39.6747 73.848 40.1299Q74.1315 40.585 74.3926 41.0535Q74.6536 41.5219 74.8915 42.0025Q75.1294 42.4831 75.3436 42.9747Q75.5578 43.4663 75.7478 43.9678Q75.9379 44.4693 76.1032 44.9794Q76.2685 45.4895 76.4088 46.0071Q76.5491 46.5247 76.664 47.0485Q76.7789 47.5723 76.8682 48.1011Q76.9574 48.6299 77.0208 49.1623Q77.0842 49.6948 77.1215 50.2298Q77.1589 50.7648 77.1701 51.3009Q77.1813 51.837 77.1664 52.3731Q77.1515 52.9091 77.1105 53.4438Q77.0695 53.9785 77.0025 54.5106Q76.9355 55.0426 76.8427 55.5708Q76.7498 56.0989 76.6314 56.6219Q76.5129 57.1449 76.3691 57.6616Q76.2253 58.1782 76.0565 58.6872Q75.8876 59.1961 75.6942 59.6963Q75.5008 60.1965 75.2832 60.6866Q75.0657 61.1768 74.8245 61.6557Q74.5833 62.1347 74.3191 62.6013Q74.0549 63.068 73.7682 63.5212Q73.4816 63.9744 73.1732 64.4131Q72.8648 64.8518 72.5354 65.2749Q72.2059 65.6981 71.8563 66.1047Q71.5067 66.5113 71.1377 66.9004Q70.7686 67.2895 70.3811 67.6601Q69.9935 68.0307 69.5884 68.3821Q69.1832 68.7334 68.7614 69.0646Q68.3396 69.3957 67.9022 69.7059Q67.4648 70.0161 67.0128 70.3047Q66.5608 70.5932 66.0952 70.8594Q65.6297 71.1255 65.1517 71.3687Q64.6738 71.6119 64.1845 71.8315Q63.6953 72.051 63.196 72.2465Q62.6966 72.442 62.1883 72.6129Q61.68 72.7839 61.164 72.9298Q60.648 73.0758 60.1255 73.1964Q59.603 73.3171 59.0752 73.4121Q58.5474 73.5071 58.0157 73.5763Q57.4839 73.6455 56.9494 73.6888Q56.4149 73.732 55.8789 73.7491Q55.1541 73.7722 54.4293 73.7476Q53.7046 73.723 52.983 73.6507Q52.2614 73.5784 51.5462 73.4587Q50.831 73.339 50.1252 73.1725Q49.4194 73.006 48.7261 72.7933Q48.0328 72.5807 47.355 72.3228Q46.6772 72.065 46.0178 71.763Q45.3585 71.4611 44.7205 71.1164Q44.0824 70.7717 43.4685 70.3858Q42.8546 69.9998 42.2674 69.5743Q41.6802 69.1487 41.1223 68.6854Q40.5644 68.2221 40.0383 67.7231Q39.5121 67.224 39.02 66.6914Q38.5278 66.1588 38.0718 65.5949Q37.6158 65.0311 37.1979 64.4384Q36.78 63.8457 36.4021 63.2268Q36.0242 62.6079 35.6878 61.9654Q35.3514 61.323 35.0581 60.6598Q34.7648 59.9966 34.5158 59.3155Q34.2668 58.6344 34.0632 57.9384Q33.8596 57.2423 33.7022 56.5344Q33.5449 55.8265 33.4346 55.1098Q33.3242 54.3931 33.2613 53.6706Q33.1984 52.9482 33.1832 52.2231Q33.1679 51.4981 33.2005 50.7737Q33.2331 50.0492 33.3133 49.3285Q33.3935 48.6077 33.5211 47.8939Q33.6486 47.18 33.8228 46.476Q33.9971 45.7721 34.2173 45.0812Q34.4375 44.3902 34.7028 43.7153Q34.9681 43.0404 35.2772 42.3844Q35.5863 41.7284 35.938 41.0942Q36.2897 40.46 36.6823 39.8503Q37.075 39.2407 37.507 38.6582Q37.939 38.0757 38.4084 37.5229Q38.8777 36.9701 39.3825 36.4495Q39.8873 35.9288 40.4253 35.4426Q40.9633 34.9563 41.5321 34.5065Q42.1009 34.0567 42.6982 33.6453Q43.2954 33.234 43.9184 32.8628Q44.5414 32.4917 45.1875 32.1624Q45.8336 31.8331 46.5 31.5471Q47.1664 31.2611 47.8502 31.0196Q48.534 30.778 49.2322 30.5821Q49.9304 30.3861 50.64 30.2366Q51.3496 30.087 52.0675 29.9845Q52.7854 29.882 53.5085 29.827Q54.2316 29.772 54.9567 29.7648ZM55.6009 58.7452C57.6716 58.4903 58.9713 57.5389 60.2733 55.9111C61.2666 54.6693 61.9685 53.3487 62.5689 51.8867L62.4388 51.6315C62.1018 50.959 61.8417 50.3292 61.6183 49.6109C61.1499 48.105 60.201 46.6383 58.7909 45.856C57.7051 45.2536 56.3424 45.0257 55.1879 44.5106C52.517 45.5651 49.7355 46.8974 48.5804 49.7458C47.9636 51.2669 48.0537 52.9551 48.742 54.4368C49.5971 56.2774 51.2755 57.5172 53.1544 58.1894C53.9409 58.4708 54.7769 58.6227 55.6009 58.7452Z"/>
	<path fill="#fff" fill-opacity="0.97254902" d="M166.944 29.7687Q167.48 29.7638 168.015 29.785Q168.551 29.8062 169.084 29.8534Q169.618 29.9006 170.149 29.9738Q170.68 30.0469 171.206 30.1459Q171.733 30.2448 172.254 30.3692Q172.775 30.4937 173.29 30.6433Q173.804 30.793 174.311 30.9675Q174.817 31.1421 175.315 31.3411Q175.812 31.5401 176.3 31.7631Q176.787 31.9861 177.263 32.2325Q177.738 32.479 178.202 32.7483Q178.665 33.0176 179.114 33.3092Q179.564 33.6007 179.999 33.9138Q180.434 34.2269 180.853 34.5608Q181.272 34.8947 181.674 35.2486Q182.076 35.6025 182.461 35.9756Q182.846 36.3487 183.212 36.74Q183.578 37.1314 183.924 37.5401Q184.271 37.9488 184.597 38.3739Q184.923 38.799 185.228 39.2395Q185.533 39.68 185.816 40.1348Q186.1 40.5896 186.36 41.0577Q186.621 41.5257 186.859 42.006Q187.097 42.4862 187.311 42.9774Q187.525 43.4686 187.715 43.9696Q187.905 44.4707 188.07 44.9804Q188.235 45.4901 188.375 46.0072Q188.516 46.5244 188.63 47.0477Q188.745 47.5711 188.835 48.0994Q188.924 48.6278 188.987 49.1598Q189.051 49.6919 189.088 50.2264Q189.126 50.7609 189.137 51.2966Q189.148 51.8323 189.134 52.3679Q189.119 52.9035 189.078 53.4378Q189.037 53.9721 188.971 54.5037Q188.904 55.0354 188.811 55.5631Q188.719 56.0909 188.601 56.6135Q188.483 57.1362 188.339 57.6524Q188.196 58.1687 188.027 58.6774Q187.859 59.186 187.666 59.6859Q187.473 60.1858 187.256 60.6756Q187.039 61.1655 186.798 61.6442Q186.557 62.123 186.294 62.5894Q186.03 63.0559 185.744 63.5089Q185.458 63.9619 185.15 64.4005Q184.842 64.8391 184.513 65.2622Q184.185 65.6852 183.836 66.0918Q183.487 66.4984 183.118 66.8875Q182.75 67.2765 182.363 67.6472Q181.976 68.0179 181.571 68.3693Q181.167 68.7207 180.746 69.052Q180.325 69.3833 179.888 69.6937Q179.451 70.0041 179 70.2929Q178.548 70.5816 178.084 70.8481Q177.619 71.1145 177.141 71.358Q176.664 71.6015 176.176 71.8215Q175.687 72.0414 175.188 72.2374Q174.689 72.4333 174.182 72.6047Q173.674 72.7761 173.159 72.9225Q172.643 73.069 172.121 73.1902Q171.599 73.3114 171.072 73.4071Q170.545 73.5027 170.014 73.5726Q169.483 73.6425 168.949 73.6864Q168.415 73.7303 167.879 73.7482Q167.154 73.7724 166.429 73.7487Q165.703 73.725 164.981 73.6536Q164.259 73.5822 163.543 73.4633Q162.828 73.3445 162.121 73.1787Q161.415 73.0129 160.721 72.8009Q160.027 72.589 159.348 72.3317Q158.67 72.0745 158.01 71.7731Q157.35 71.4717 156.711 71.1274Q156.072 70.7832 155.457 70.3976Q154.843 70.012 154.255 69.5867Q153.667 69.1615 153.108 68.6984Q152.55 68.2353 152.023 67.7364Q151.496 67.2375 151.003 66.705Q150.51 66.1724 150.053 65.6086Q149.597 65.0447 149.178 64.452Q148.76 63.8592 148.381 63.2402Q148.002 62.6212 147.665 61.9785Q147.328 61.3359 147.035 60.6724Q146.741 60.009 146.491 59.3276Q146.242 58.6462 146.038 57.9499Q145.834 57.2536 145.676 56.5453Q145.518 55.837 145.407 55.1199Q145.297 54.4028 145.233 53.6799Q145.17 52.957 145.155 52.2316Q145.139 51.5061 145.172 50.7812Q145.204 50.0563 145.284 49.3351Q145.364 48.6139 145.492 47.8996Q145.619 47.1852 145.794 46.4809Q145.968 45.7765 146.188 45.0851Q146.409 44.3937 146.674 43.7184Q146.939 43.043 147.249 42.3867Q147.558 41.7303 147.91 41.0957Q148.262 40.4611 148.655 39.8512Q149.048 39.2412 149.48 38.6584Q149.913 38.0756 150.382 37.5226Q150.852 36.9696 151.357 36.4488Q151.863 35.928 152.401 35.4416Q152.94 34.9551 153.509 34.5053Q154.078 34.0554 154.676 33.6441Q155.274 33.2327 155.897 32.8616Q156.521 32.4905 157.167 32.1614Q157.814 31.8322 158.481 31.5464Q159.148 31.2605 159.832 31.0192Q160.517 30.778 161.215 30.5823Q161.914 30.3867 162.624 30.2375Q163.334 30.0884 164.053 29.9863Q164.771 29.8843 165.495 29.8298Q166.218 29.7754 166.944 29.7687ZM167.613 58.7421C169.674 58.4847 170.974 57.5272 172.271 55.9085C173.267 54.666 173.963 53.3498 174.553 51.8819C174.176 51.1073 173.846 50.3703 173.589 49.5466C173.124 48.0544 172.114 46.5551 170.7 45.8124C169.629 45.2502 168.324 45.0132 167.197 44.5104C164.542 45.5588 161.71 46.9009 160.571 49.7393C159.939 51.3133 160.048 53.0533 160.793 54.5677C161.699 56.4084 163.477 57.6508 165.396 58.2705C166.107 58.5004 166.875 58.6301 167.613 58.7421Z"/>
	<path fill="#fff" fill-opacity="0.97254902" d="M110.963 29.7724Q111.499 29.7676 112.034 29.789Q112.569 29.8103 113.103 29.8577Q113.636 29.905 114.167 29.9783Q114.698 30.0516 115.224 30.1507Q115.751 30.2497 116.272 30.3743Q116.793 30.4989 117.307 30.6487Q117.821 30.7985 118.328 30.9731Q118.834 31.1478 119.332 31.3469Q119.829 31.546 120.316 31.7691Q120.803 31.9922 121.279 32.2388Q121.754 32.4853 122.217 32.7548Q122.68 33.0242 123.13 33.3158Q123.579 33.6075 124.014 33.9207Q124.448 34.2338 124.867 34.5678Q125.286 34.9018 125.688 35.2558Q126.09 35.6098 126.475 35.9829Q126.859 36.356 127.225 36.7474Q127.591 37.1389 127.937 37.5476Q128.283 37.9564 128.609 38.3815Q128.935 38.8066 129.24 39.2472Q129.545 39.6877 129.828 40.1425Q130.111 40.5973 130.371 41.0654Q130.632 41.5334 130.869 42.0137Q131.107 42.4939 131.321 42.9851Q131.534 43.4762 131.724 43.9773Q131.914 44.4783 132.079 44.988Q132.244 45.4976 132.384 46.0147Q132.524 46.5318 132.638 47.0551Q132.753 47.5784 132.842 48.1067Q132.931 48.6349 132.994 49.1669Q133.057 49.6989 133.095 50.2333Q133.132 50.7677 133.143 51.3033Q133.154 51.8389 133.139 52.3744Q133.124 52.9099 133.083 53.444Q133.042 53.9781 132.975 54.5096Q132.908 55.0411 132.816 55.5687Q132.723 56.0963 132.604 56.6188Q132.486 57.1412 132.342 57.6573Q132.199 58.1734 132.03 58.6819Q131.862 59.1903 131.668 59.69Q131.475 60.1896 131.258 60.6793Q131.041 61.169 130.8 61.6475Q130.559 62.126 130.295 62.5922Q130.031 63.0584 129.745 63.5112Q129.459 63.964 129.151 64.4023Q128.843 64.8406 128.514 65.2634Q128.185 65.6862 127.836 66.0925Q127.487 66.4988 127.118 66.8876Q126.75 67.2764 126.363 67.6468Q125.976 68.0172 125.571 68.3684Q125.167 68.7195 124.745 69.0505Q124.324 69.3815 123.887 69.6916Q123.451 70.0017 122.999 70.2901Q122.548 70.5786 122.083 70.8447Q121.618 71.1109 121.141 71.354Q120.663 71.5972 120.175 71.8169Q119.686 72.0365 119.187 72.2321Q118.689 72.4277 118.181 72.5988Q117.673 72.7699 117.158 72.916Q116.643 73.0622 116.121 73.1831Q115.599 73.304 115.072 73.3993Q114.545 73.4946 114.013 73.5642Q113.482 73.6337 112.948 73.6773Q112.414 73.7209 111.879 73.7385Q111.154 73.7623 110.429 73.7382Q109.704 73.7142 108.982 73.6424Q108.261 73.5706 107.545 73.4514Q106.83 73.3322 106.124 73.1661Q105.417 73.0001 104.724 72.7878Q104.03 72.5756 103.352 72.3181Q102.674 72.0606 102.014 71.7589Q101.355 71.4573 100.716 71.1129Q100.078 70.7684 99.4638 70.3827Q98.8495 69.9969 98.262 69.5715Q97.6745 69.1461 97.1163 68.6829Q96.5581 68.2197 96.0317 67.7207Q95.5052 67.2218 95.0128 66.6892Q94.5204 66.1566 94.0641 65.5927Q93.6079 65.0288 93.1898 64.4361Q92.7716 63.8434 92.3935 63.2244Q92.0154 62.6054 91.6788 61.9629Q91.3423 61.3203 91.0489 60.657Q90.7554 59.9937 90.5063 59.3125Q90.2572 58.6312 90.0536 57.9351Q89.8499 57.2389 89.6926 56.5308Q89.5352 55.8228 89.4249 55.1059Q89.3145 54.389 89.2517 53.6664Q89.1888 52.9438 89.1737 52.2186Q89.1586 51.4934 89.1913 50.7688Q89.2241 50.0442 89.3045 49.3233Q89.3849 48.6025 89.5126 47.8885Q89.6403 47.1745 89.8149 46.4704Q89.9894 45.7664 90.2099 45.0754Q90.4304 44.3844 90.696 43.7094Q90.9616 43.0345 91.2711 42.3785Q91.5806 41.7225 91.9326 41.0883Q92.2846 40.4541 92.6777 39.8445Q93.0708 39.2349 93.5031 38.6526Q93.9355 38.0702 94.4053 37.5176Q94.8752 36.965 95.3804 36.4446Q95.8856 35.9241 96.424 35.4381Q96.9624 34.9521 97.5317 34.5026Q98.101 34.0532 98.6986 33.6422Q99.2963 33.2312 99.9197 32.8605Q100.543 32.4898 101.19 32.1609Q101.836 31.8321 102.503 31.5466Q103.17 31.2611 103.854 31.0202Q104.538 30.7792 105.237 30.5839Q105.935 30.3886 106.645 30.2397Q107.355 30.0908 108.073 29.9891Q108.791 29.8873 109.514 29.8331Q110.238 29.7788 110.963 29.7724ZM111.607 58.7475C113.691 58.4808 114.984 57.5205 116.288 55.8766C117.243 54.6732 117.946 53.3759 118.564 51.9759C118.194 51.1675 117.858 50.3875 117.593 49.5382C117.126 48.0461 116.156 46.6295 114.767 45.8557C113.689 45.2549 112.342 45.025 111.197 44.5102C108.522 45.5626 105.738 46.8932 104.581 49.7457C103.964 51.2672 104.055 52.9548 104.744 54.4367C105.599 56.2761 107.277 57.516 109.155 58.1889C109.943 58.4714 110.781 58.6237 111.607 58.7475Z"/>
	<path fill="#fff" fill-opacity="0.97647059" d="M395.98 326.127C397.356 326.044 398.894 326.099 400.198 325.633L400.426 325.139C401.739 324.9 403.711 325.346 405.076 325.477C404.022 325.509 402.978 325.527 401.932 325.674L402.92 325.685L402.817 325.786C408.849 326.235 415.118 325.894 421.17 325.893C430.274 325.892 439.413 325.672 448.511 325.824C450.006 325.849 451.502 326.163 452.972 326.192C453.555 326.203 454.176 325.845 454.684 325.585C456.364 326.519 457.416 327.587 457.988 329.46C458.786 332.072 458.418 335.208 457.096 337.576C457.046 337.666 456.991 337.754 456.938 337.844C455.779 338.563 454.698 339.281 453.311 339.456C450.578 339.801 447.591 339.595 444.834 339.596L428.544 339.599L408.809 339.597C405.301 339.597 401.271 339.997 397.835 339.299C396.58 339.043 395.406 338.308 394.701 337.23C393.653 335.626 392.579 332.629 393.044 330.763C393.514 328.872 394.399 327.287 395.98 326.127Z"/>
	<path fill="#fff" fill-opacity="0.97647059" d="M297.702 326.081C301.893 326.323 306.412 325.879 310.614 325.65C316.786 325.315 322.89 325.049 329.076 324.992C331.87 324.966 334.947 324.717 337.7 325.176C338.518 325.313 339.244 325.333 340.071 325.296C342.35 326.008 343.533 327.204 344.63 329.338C345.492 331.015 345.431 333.367 344.812 335.112C344.231 336.746 343.017 338.401 341.353 339.054C338.862 340.032 303.055 339.785 298.899 339.419C297.312 338.084 295.871 336.806 294.612 335.146C294.267 332.613 293.968 329.89 295.643 327.72C296.193 327.007 296.919 326.509 297.702 326.081Z"/>
	<path fill="#fff" fill-opacity="0.97647059" d="M362.78 324.555C366.613 324.437 370.763 324.113 374.558 324.673C378.034 325.186 379.951 326.535 381.963 329.284C382.028 329.702 382.085 330.114 382.127 330.535C382.37 332.968 382.243 335.474 380.559 337.42C379.07 339.14 377.269 339.503 375.126 339.612C371.449 339.609 362.464 340.388 359.565 338.728C356.969 337.241 356.251 334.48 355.601 331.782C355.95 330.744 356.272 329.639 356.756 328.656C357.967 326.197 360.403 325.449 362.78 324.555Z"/>
	<path fill="#fff" fill-opacity="0.90588236" d="M395.98 326.127C396.086 326.057 396.189 325.983 396.296 325.915C397.5 325.153 399.275 324.77 400.68 324.619C406.913 323.949 413.633 324.42 419.919 324.42L436.616 324.429C442.726 324.436 448.689 324.166 454.684 325.585C454.176 325.845 453.555 326.203 452.972 326.192C451.502 326.163 450.006 325.849 448.511 325.824C439.413 325.672 430.274 325.892 421.17 325.893C415.118 325.894 408.849 326.235 402.817 325.786L402.92 325.685L401.932 325.674C402.978 325.527 404.022 325.509 405.076 325.477C403.711 325.346 401.739 324.9 400.426 325.139L400.198 325.633C398.894 326.099 397.356 326.044 395.98 326.127Z"/>
	<defs>
		<linearGradient id="gradient_0" gradientUnits="userSpaceOnUse" x1="305.2243" y1="326.34598" x2="303.87119" y2="324.15369">
			<stop offset="0" stop-color="#fff" stop-opacity="0.90196079"/>
			<stop offset="1" stop-color="#fff" stop-opacity="0.93333334"/>
		</linearGradient>
	</defs>
	<path fill="url(#gradient_0)" d="M297.702 326.081C297.992 325.915 298.093 325.847 298.378 325.717C299.722 325.106 301.283 324.771 302.746 324.619C308.156 324.053 313.891 324.402 319.335 324.389C325.138 324.375 331.188 324.023 336.965 324.557C338.063 324.659 339.036 324.93 340.071 325.296C339.244 325.333 338.518 325.313 337.7 325.176C334.947 324.717 331.87 324.966 329.076 324.992C322.89 325.049 316.786 325.315 310.614 325.65C306.412 325.879 301.893 326.323 297.702 326.081Z"/>
	<path fill="#fff" fill-opacity="0.97254902" d="M398.635 406.572C401.5 406.291 404.47 406.463 407.348 406.463L423.378 406.462L441.137 406.466C444.392 406.467 447.74 406.305 450.982 406.575C453.321 406.769 455.344 407.127 456.885 409.043C458.942 411.6 458.242 415.002 457.977 418.016C456.289 419.668 454.826 420.715 452.602 421.508C443.036 421.931 433.286 421.556 423.695 421.556C416.066 421.556 408.167 421.994 400.563 421.54C397.273 421.343 395.645 419.601 393.59 417.266C393.304 414.939 393.278 412.888 393.6 410.56C395.112 408.699 396.506 407.661 398.635 406.572Z"/>
	<path fill="#fff" fill-opacity="0.97254902" d="M299.51 406.583C305.397 406.037 311.587 406.489 317.523 406.491C324.204 406.492 331.058 406.119 337.718 406.497C338.856 406.561 339.989 406.698 341.05 407.14C342.745 407.847 343.921 409.192 344.574 410.891C345.363 412.945 345.377 415.225 344.469 417.242C343.451 419.502 342.041 420.624 339.78 421.451C336.203 421.798 301.875 421.902 299.892 421.338C297.984 420.795 296.092 419.18 295.149 417.455C294.193 415.706 294.034 413.589 294.595 411.684C295.346 409.137 297.338 407.819 299.51 406.583Z"/>
	<path fill="#fff" fill-opacity="0.97647059" d="M361.146 406.569C364.793 406.321 374.995 405.885 378.052 407.153C379.743 407.854 381.045 409.102 381.737 410.805C382.538 412.776 382.553 415.373 381.685 417.325C380.636 419.684 378.917 420.675 376.605 421.5C372.432 421.759 362.992 422.351 359.632 420.364C357.031 418.826 356.284 416.555 355.571 413.812C355.866 412.897 356.16 411.965 356.527 411.076C357.45 408.837 358.94 407.504 361.146 406.569Z"/>
	<path fill="#fff" fill-opacity="0.91764706" d="M272.295 221.152C274.287 219.376 277.461 218.022 280.101 217.659C284.512 217.053 289.323 217.401 293.776 217.405L319.302 217.428L359.464 217.424C366.761 217.424 374.166 217.168 381.451 217.561C383.684 217.681 386.2 218.292 387.708 220.042C389.834 222.509 389.255 226.013 388.978 228.983C387.547 230.421 386.369 231.811 384.362 232.386C384.232 232.423 384.104 232.463 383.975 232.502C384.332 230.693 386.414 230.24 387.526 228.814C388.454 227.624 388.418 225.928 388.232 224.507C388.13 223.728 387.889 221.718 387.388 221.143C387.052 220.756 386.084 220.526 385.626 220.133C385.358 219.903 385.423 219.397 385.388 219.059C384.589 219.274 384.003 219.595 383.204 219.319C382.559 219.096 382.025 218.86 381.327 218.843C374.968 218.69 368.539 218.945 362.173 218.953L319.387 218.954L289.543 218.946C286.078 218.942 282.453 218.559 279.018 218.722C276.646 218.835 274.832 220.98 272.704 221.134C272.568 221.144 272.431 221.146 272.295 221.152Z"/>
	<path fill="#fff" fill-opacity="0.92156863" d="M422.041 221.791C422.735 220.257 423.876 219.416 425.332 218.61C426.331 218.057 427.378 217.701 428.51 217.565C433.876 216.925 441.463 217.405 447.028 217.413C454.745 217.425 462.699 217.012 470.38 217.53C472.408 217.667 474.203 218.003 476.159 218.564C475.935 218.709 475.414 219.147 475.184 219.194C473.39 219.565 470.623 218.767 468.693 218.788Q451.81 219.122 434.925 218.945C432.414 218.934 429.22 218.438 426.782 218.804C425.452 219.004 423.4 220.567 422.64 221.675L422.041 221.791Z"/>
	<path fill="#fff" fill-opacity="0.95686275" d="M267.486 231.103C267.558 231.21 267.632 231.316 267.702 231.424C267.903 231.73 268.044 231.99 268.182 232.325L268.475 231.977Q268.572 244.939 268.531 257.901C268.522 262.389 268.171 267.129 268.592 271.588L268.638 272.091L268.669 272.393C268.34 272.753 268.388 272.764 267.879 272.924C266.866 269.985 267.481 237.064 267.486 231.103Z"/>
	<path fill="#fff" fill-opacity="0.95686275" d="M450.503 283.698C451.57 285.41 451.991 297.163 451.569 299.331C451.126 299.416 450.889 299.427 450.454 299.394C450.393 294.195 450.241 288.888 450.503 283.698Z"/>
	<path fill="#fff" fill-opacity="0.96078432" d="M450.547 365.693C451.594 366.924 451.801 378.802 451.581 380.688C451.54 381.041 451.517 381.08 451.428 381.374L450.517 381.369C450.337 377.483 450.025 369.3 450.547 365.693Z"/>
	<path fill="#fff" fill-opacity="0.96470588" d="M267.551 429.735C269.016 431.401 268.614 434.071 268.503 436.197C268.126 436.543 268.34 436.42 267.866 436.574C267.089 435.022 267.238 431.412 267.551 429.735Z"/>
	<path fill="#fff" fill-opacity="0.97254902" d="M267.486 231.103C267.444 229.632 267.777 228.407 268.202 227.021C268.457 228.707 268.501 230.274 268.475 231.977L268.182 232.325C268.044 231.99 267.903 231.73 267.702 231.424C267.632 231.316 267.558 231.21 267.486 231.103Z"/>
	<path fill="#fff" fill-opacity="0.33333334" d="M512 263.291L512 360.603C510.761 365.778 512.494 371.663 511.484 376.882C510.94 370.462 511.412 362.078 511.428 355.485L511.52 313.515L511.707 279.235C511.747 274.381 511.345 267.922 512 263.291Z"/>
	<path fill="#fff" fill-opacity="0.95686275" d="M268.222 390.31C268.576 392.258 268.86 413.738 268.47 414.425L267.46 414.485C267.501 409.483 266.662 393.884 268.222 390.31Z"/>
	<path fill="#fff" fill-opacity="0.074509807" d="M511.484 376.882C512.494 371.663 510.761 365.778 512 360.603L512 396.61L511.326 397.84C511.661 390.875 511.347 383.859 511.484 376.882Z"/>
</svg>
