<?xml version="1.0" encoding="utf-8" ?>
<svg xmlns="http://www.w3.org/2000/svg" xmlns:xlink="http://www.w3.org/1999/xlink" width="512" height="512">
	<path fill="#fff" fill-opacity="0.98039216" d="M299.649 104.541C305.939 97.7865 312.688 91.375 319.215 84.8463L354.93 49.1238L383.204 20.8491C388.02 16.0332 392.733 10.8688 397.805 6.33368C399.389 4.91782 401.136 3.55561 403.153 2.8504C409.331 0.69112 416.868 0.0654447 422.96 2.98549C424.739 3.8379 426.462 5.06933 427.956 6.35015C433.003 10.677 437.621 15.8563 442.32 20.5716C446.052 24.3156 450.325 28.0011 453.632 32.1004C455.405 34.2982 456.874 36.5091 457.741 39.2152C459.617 45.0707 459.681 51.901 456.791 57.4643Q455.457 60.0533 453.513 62.2224C450.769 65.3175 447.697 68.1823 444.771 71.1059L429.705 86.1518L418.526 97.3538C416.12 99.7647 413.776 102.334 411.104 104.451C424.414 104.62 437.738 104.461 451.05 104.458C456.918 104.457 463.157 104.023 468.989 104.568C470.377 104.698 472.738 104.929 473.732 105.911C474.637 106.805 475.799 108.25 476.029 109.545C476.683 113.228 476.25 117.624 476.24 121.389L476.226 143.858L476.225 223.232L476.223 247.29C476.225 253.038 476.057 258.947 476.666 264.67C481.002 259.971 485.601 255.51 490.105 250.972C493.266 247.786 496.661 243.566 500.479 241.195C501.576 240.513 502.925 240.296 504.202 240.253C506.328 240.183 508.097 240.887 509.622 242.364C510.565 243.276 511.282 244.494 512 245.588L512 505.611C510.817 508.001 509.696 509.744 507.019 510.641C506.011 510.979 505.03 511.185 503.973 511.273C500.304 510.927 496.412 511.175 492.719 511.177L471.188 511.187L402 511.185L300.923 511.183L267.941 511.182C261.365 511.182 254.749 511.021 248.181 511.322C246.891 511.001 245.404 510.559 244.306 509.787C242.716 508.67 241.679 507.087 241.367 505.165C241.086 503.432 241.263 500.509 242.402 499.065C244.915 495.88 247.974 493.093 250.842 490.227L263.997 477.083L277.089 464.015C279.924 461.186 282.704 458.153 285.863 455.686C279.417 455.12 272.641 455.537 266.165 455.54L228.498 455.549L106.31 455.552L76.553 455.559C66.3022 455.559 56.1887 455.626 46.0019 454.218C41.7327 453.627 37.3923 452.077 33.5011 450.259Q32.1699 449.641 30.8715 448.957Q29.5732 448.274 28.3109 447.525Q27.0486 446.777 25.8257 445.966Q24.6028 445.155 23.4222 444.283Q22.2417 443.411 21.1066 442.481Q19.9715 441.551 18.8847 440.565Q17.7979 439.579 16.7622 438.539Q15.7264 437.5 14.7444 436.409Q13.7624 435.319 12.8365 434.18Q11.9107 433.042 11.0434 431.858Q10.1761 430.674 9.36953 429.448Q8.56298 428.222 7.81923 426.957Q7.07548 425.692 6.39641 424.391Q5.71734 423.091 5.10469 421.757Q4.49204 420.424 3.94735 419.061Q3.40266 417.698 2.92733 416.31C1.66002 412.533 1.60196 408.263 0.179646 404.627C0.121866 404.479 0.0598819 404.333 0 404.186L0 75.0576L0.111039 74.7334C1.36197 70.9951 1.51528 66.9643 2.76817 63.1905C3.7118 60.3483 5.02904 57.6634 6.37813 54.9966C12.3955 43.1022 21.1753 34.5605 33.036 28.4688C39.3153 25.2438 54.4018 20.8055 61.4436 23.0849C63.5223 23.7578 64.5855 24.6408 65.5902 26.5575C65.6419 26.6562 65.7001 26.7513 65.7502 26.8507C67.0295 29.3882 65.8279 94.5898 66.4415 104.502L217.369 104.462L270.56 104.463C280.243 104.464 289.972 104.272 299.649 104.541ZM51.4812 342.376L51.4713 309.067C51.4682 304.326 50.9231 297.427 51.7087 292.924Q51.7924 292.452 51.9462 291.998Q52.1 291.544 52.3203 291.118Q52.5406 290.692 52.8225 290.305Q53.1043 289.917 53.4413 289.576C54.9206 288.055 57.1862 287.296 59.2855 287.344C60.2156 287.365 61.1636 287.546 62.0809 287.694C63.6423 288.858 65.6357 290.171 65.9846 292.237C66.4542 295.016 66.2412 298.087 66.2364 300.903L66.2301 314.058L66.2198 336.65C66.2188 342.102 66.3334 347.531 65.9482 352.974C65.0492 353.898 64.0687 355.08 62.9389 355.708C60.2741 357.191 55.7182 356.883 52.681 357.342C50.5888 357.659 48.5072 358.209 46.4929 358.85C28.5122 364.569 14.8827 380.917 15.1393 400.201C15.2783 410.649 20.3369 420.985 27.8002 428.198C33.5171 433.723 41.4631 437.993 49.3511 439.252C60.9868 441.109 73.2408 440.302 84.9974 440.301L140.876 440.299L248.072 440.295L281.754 440.296C287.268 440.305 292.849 440.525 298.352 440.356C299.484 440.321 300.548 440.189 301.614 439.792L301.777 439.588C306.041 434.325 311.976 429.093 316.858 424.214C321.473 419.601 326.404 413.969 331.424 409.946C332.901 408.761 334.261 407.613 336.215 407.431C338.34 407.232 340.624 407.974 342.248 409.354C343.669 410.561 344.183 411.944 344.278 413.78C344.366 415.497 344.076 417.273 343.879 418.977L290.533 472.348L275.263 487.629C272.306 490.59 269.412 493.897 266.068 496.41C282.038 496.179 298.053 496.404 314.028 496.404L409.417 496.407L467.916 496.41L486.36 496.401C489.716 496.395 493.121 496.255 496.47 496.424Q496.578 478.515 496.46 460.607C492.429 460.632 485.079 461.257 481.389 460.187Q480.896 460.042 480.426 459.835Q479.955 459.628 479.515 459.362Q479.075 459.097 478.673 458.777Q478.27 458.457 477.912 458.089C476.444 456.596 475.387 454.51 475.409 452.383Q475.414 452.036 475.454 451.692Q475.493 451.347 475.567 451.008Q475.64 450.669 475.747 450.339Q475.854 450.009 475.993 449.692Q476.132 449.374 476.302 449.071Q476.471 448.769 476.67 448.485Q476.869 448.201 477.096 447.938Q477.322 447.675 477.573 447.436C478.474 446.582 479.662 445.951 480.865 445.65C482.975 445.124 493.318 445.292 495.698 445.433C495.957 445.448 496.213 445.479 496.471 445.506Q496.553 434.068 496.438 422.631C492.595 422.613 484.044 423.129 480.837 422.267Q479.996 422.039 479.237 421.612Q478.477 421.185 477.845 420.585C476.373 419.175 475.536 416.843 475.548 414.823C475.56 412.921 476.384 411.175 477.766 409.883C478.928 408.798 480.411 408.076 481.952 407.714C485.32 406.923 491.977 407.258 495.572 407.502Q496.067 407.534 496.56 407.583C496.359 402.874 496.473 398.132 496.477 393.419C496.479 390.57 496.277 387.544 496.566 384.716C491.143 384.691 485.109 385.206 479.753 384.361C477.733 382.598 475.544 380.642 475.358 377.764C475.225 375.703 476.25 373.848 477.607 372.366C478.023 371.911 478.508 371.521 478.975 371.12C483.217 370.758 487.469 371.153 491.718 371.121C493.257 371.109 496.056 371.303 497.108 369.932C497.42 369.526 497.55 369.022 497.563 368.52C497.624 366.157 497.38 363.706 497.386 361.324C497.396 356.905 497.738 352.162 497.27 347.788L496.7 347.505C493.934 347.782 485.291 347.984 482.736 347.506Q482.159 347.403 481.601 347.229Q481.042 347.054 480.51 346.809Q479.977 346.565 479.48 346.255Q478.984 345.945 478.53 345.575C476.868 344.199 475.579 342.109 475.374 339.935Q475.342 339.611 475.343 339.285Q475.344 338.959 475.378 338.636Q475.412 338.312 475.479 337.993Q475.545 337.674 475.644 337.364Q475.743 337.053 475.873 336.755Q476.004 336.456 476.163 336.172Q476.323 335.889 476.511 335.623Q476.699 335.357 476.913 335.111C478.416 333.357 480.686 332.552 482.938 332.424C486.968 332.197 492.479 332.116 496.475 332.503L496.517 287.463C496.515 280.828 496.1 273.122 496.499 266.635C491.941 270.626 487.732 275.127 483.447 279.412L461.882 300.985L395.343 367.523L374.495 388.404C371.118 391.789 367.729 395.747 364.021 398.752C362.712 399.813 361.23 400.331 359.653 400.83C356.496 400.065 354.699 398.766 352.623 396.249C351.966 392.855 351.724 390.758 353.69 387.717C355.695 384.616 362.956 378.135 365.939 375.155L395.93 345.167L440.542 300.557L453.874 287.218C456.349 284.74 458.816 281.959 461.546 279.766C461.231 268.691 461.477 257.542 461.476 246.458L461.475 184.029L461.475 140.705C461.475 133.815 461.072 126.395 461.49 119.58C448.551 119.825 435.55 119.549 422.605 119.549C414.309 119.548 404.457 120 396.312 119.438C391.879 124.172 387.174 128.686 382.588 133.272L358.725 157.136L286.242 229.614L253.908 261.948C250.824 265.032 243.644 272.982 240.444 275.09C236.724 277.541 225.18 281.003 220.447 282.61L193.639 291.879C197.335 292.453 201.111 292.35 204.842 292.387C211.734 292.455 218.616 292.338 225.506 292.326L301.968 292.333L327.563 292.335C332.341 292.337 337.193 292.16 341.96 292.444C343.571 292.54 345.084 292.67 346.551 293.391L347.618 293.906C349.158 296.534 349.886 299.081 349.143 302.144C348.761 303.718 348.069 304.729 347.017 305.945C345.374 306.428 343.649 307.067 341.963 307.348C337.905 308.025 333.028 307.557 328.888 307.558L301.548 307.559L236.644 307.549L168.839 307.546C158.324 307.547 147.259 307.917 136.828 307.593C134.755 307.529 132.57 307.281 130.737 306.242C128.151 304.777 127.376 302.172 126.268 299.629C127.328 296.599 127.937 294.553 130.642 292.626C140.08 291.856 149.819 292.396 159.292 292.398C159.33 291.709 159.383 291.017 159.576 290.352C160.34 287.722 161.483 285.147 162.357 282.544C165.979 271.758 169.954 261.095 173.741 250.368L179.943 232.791C181.262 228.96 182.79 222.432 184.986 219.246C186.07 217.673 187.732 216.287 189.091 214.934L197.071 206.986L211.954 192.09C214.636 189.406 217.267 186.538 220.111 184.027C222.1 182.271 223.764 181.119 226.56 181.286C228.491 181.401 229.941 182.005 231.615 182.889C233.191 185.418 233.867 187.887 233.206 190.891C232.972 191.958 232.635 192.656 231.983 193.534C228.599 198.089 202.582 222.289 202.23 223.71C213.239 235.568 225.589 246.242 236.55 258.145C238.364 255.157 241.461 252.58 243.936 250.124L254.163 239.941L304.713 189.373L363.255 130.831L381.244 112.839C384.701 109.385 388.116 105.579 391.932 102.524C384.781 95.9771 378.067 88.7702 371.207 81.9091L362.182 72.8832C360.582 71.2837 358.828 69.735 357.373 68.0053C355.642 70.9226 348.816 76.9736 346.064 79.7254L319.039 106.75L275.602 150.185L262.253 163.533C259.201 166.586 256.242 169.74 252.931 172.516C251.567 173.66 248.951 173.882 247.238 173.659C245.408 173.422 243.723 172.548 242.639 171.031C241.415 169.318 241.001 166.902 241.357 164.845C241.621 163.32 242.347 161.99 243.313 160.796C244.856 158.888 246.847 157.283 248.577 155.544L259.174 144.883C267.582 136.51 275.769 127.676 284.555 119.711C274.476 119.202 264.239 119.545 254.141 119.545L199.688 119.547L114.805 119.545C98.6915 119.542 82.557 119.369 66.4469 119.616C65.7829 134.457 66.2205 149.451 66.2206 164.313L66.2226 228.274Q66.3864 248.001 66.1111 267.727L65.9289 268.049C64.7704 270.057 63.0419 271.519 60.738 272.068C58.8482 272.519 56.831 272.12 55.1886 271.101C53.3025 269.931 52.072 267.972 51.6383 265.814C50.9282 262.281 51.4606 253.888 51.4714 249.957L51.4842 214.41L51.4886 71.7715C51.4885 68.0248 51.7624 39.5694 51.33 38.7558C51.2699 38.6427 51.1244 38.6029 51.0217 38.5265C49.8951 38.6512 48.9014 39.0575 47.8199 39.3534C39.2547 41.6964 30.6737 46.9339 25.1441 53.9142C20.372 59.9381 16.6293 67.5164 15.4067 75.167C14.9455 78.0528 15.1647 81.1597 15.1681 84.0806L15.1934 98.9L15.1992 151.154L15.1995 295.345L15.2032 342.715C15.2046 348.715 15.4849 354.766 15.3538 360.755Q16.2392 359.813 17.1644 358.911Q18.0896 358.009 19.0529 357.147Q20.0162 356.285 21.0158 355.466Q22.0154 354.647 23.0495 353.871Q24.0835 353.096 25.1501 352.366Q26.2166 351.636 27.3137 350.953Q28.4108 350.27 29.5364 349.635Q30.6619 348.999 31.8139 348.413Q32.9658 347.827 34.142 347.292Q35.3182 346.756 36.5164 346.271Q37.7146 345.787 38.9326 345.355Q40.1506 344.922 41.3861 344.543Q42.6217 344.164 43.8724 343.838Q45.1232 343.513 46.3868 343.241Q47.6505 342.97 48.9247 342.754Q50.1989 342.537 51.4812 342.376ZM402.597 91.9998C404.655 88.7755 413.196 80.5215 416.372 78.0914C408.443 70.3584 400.696 62.4225 392.87 54.5843C389.644 51.3537 385.456 46.3936 381.764 43.9556C379.645 46.2705 369 56.2027 368.324 57.5278C368.997 58.8079 371.707 60.9317 372.872 62.1263C382.669 72.166 393.069 81.7132 402.597 91.9998ZM392.664 32.7821C397.228 37.8525 402.216 42.5874 407.039 47.411Q416.148 56.6225 425.426 65.6633C425.933 66.2782 426.142 66.6647 426.892 66.9625C427.976 66.5319 440.329 53.9457 441.824 52.2417C442.566 51.3959 443.331 50.4674 443.768 49.4224C444.42 47.8632 444.28 45.7363 443.585 44.2092C443.082 43.1035 442.27 42.0885 441.468 41.1803C437.624 36.8256 433.162 32.8005 429.038 28.6913C425.782 25.4474 422.577 21.7245 418.997 18.8671C417.257 17.4785 415.553 16.5438 413.456 15.7766L413.194 15.8878C412.06 16.2431 410.805 16.5097 409.747 17.0438C403.327 20.2856 398.672 28.7348 392.664 32.7821ZM186.671 258.777C191.424 263.83 196.578 268.501 201.295 273.582C204.302 271.559 208.023 270.598 211.435 269.466C215.15 268.246 218.841 267.036 222.467 265.569C219.096 261.791 197.023 238.971 194.394 237.832C192.525 242.362 190.983 247.104 189.362 251.733C188.532 254.103 187.802 256.529 186.671 258.777Z"/>
	<path fill="#fff" fill-opacity="0.97647059" d="M448.772 360.543C449.116 360.511 449.462 360.482 449.808 360.484C451.845 360.496 454.318 361.595 455.669 363.12C456.49 364.045 456.973 364.989 457.099 366.214C457.514 370.229 457.234 374.472 457.235 378.513L457.238 401.161L457.243 433.332C457.244 440.191 457.416 447.073 456.99 453.921Q456.206 454.771 455.395 455.595C454.291 456.704 453.167 457.302 451.606 457.493C448.435 457.883 445.126 457.683 441.931 457.673L425.34 457.632L368.569 457.661C367.35 457.602 366.13 457.513 364.912 457.439C363.412 456.275 361.863 454.929 360.999 453.21C360.18 451.581 360.19 449.825 360.795 448.126C361.482 446.197 362.877 444.407 364.241 442.903C368.92 437.739 374.175 432.919 379.114 427.993L407.474 399.646L431.445 375.646C435.395 371.689 439.256 367.346 443.452 363.683C445.022 362.312 446.908 361.435 448.772 360.543ZM386.673 442.598C388.023 443.946 393.156 443.968 395.023 443.967C410.339 443.957 425.715 444.195 441.022 443.88C441.355 443.874 441.588 443.973 441.834 443.705C442.138 443.374 442.179 443.053 442.327 442.648C442.338 442.619 442.359 442.595 442.374 442.568C442.965 439.912 442.472 434.385 442.471 431.383L442.478 401.235C442.477 396.462 441.969 391.216 442.628 386.515C438.621 389.911 434.963 393.949 431.246 397.664L410.995 417.914L394.594 434.319C392.19 436.724 389.353 439.094 387.197 441.695C386.959 441.982 386.83 442.264 386.673 442.598Z"/>
	<path fill="#fff" fill-opacity="0.90588236" d="M386.673 442.598C398.102 442.272 409.563 442.411 420.998 442.409C428.061 442.408 435.345 442.038 442.374 442.568C442.359 442.595 442.338 442.619 442.327 442.648C442.179 443.053 442.138 443.374 441.834 443.705C441.588 443.973 441.355 443.874 441.022 443.88C425.715 444.195 410.339 443.957 395.023 443.967C393.156 443.968 388.023 443.946 386.673 442.598Z"/>
	<path fill="#fff" fill-opacity="0.92156863" d="M496.7 347.505L497.27 347.788C497.738 352.162 497.396 356.905 497.386 361.324C497.38 363.706 497.624 366.157 497.563 368.52C497.55 369.022 497.42 369.526 497.108 369.932C496.056 371.303 493.257 371.109 491.718 371.121C487.469 371.153 483.217 370.758 478.975 371.12C482.799 368.513 492.066 369.262 496.616 369.626C496.31 366.163 496.039 350.373 496.7 347.505Z"/>
	<path fill="#fff" fill-opacity="0.011764706" d="M248.181 511.322C254.749 511.021 261.365 511.182 267.941 511.182L300.923 511.183L402 511.185L471.188 511.187L492.719 511.177C496.412 511.175 500.304 510.927 503.973 511.273C504.36 511.53 504.739 511.825 505.17 512L248.459 512L248.181 511.322Z"/>
</svg>
