<?xml version="1.0" encoding="utf-8" ?>
<svg xmlns="http://www.w3.org/2000/svg" xmlns:xlink="http://www.w3.org/1999/xlink" width="512" height="512">
	<path fill="#fff" d="M410.126 358.371Q418.377 358.417 426.628 358.347C426.679 364.071 426.897 369.882 426.548 375.592C420.868 375.923 415.204 375.499 409.532 375.652C409.509 370.583 409.38 365.478 409.541 360.413C409.568 359.545 409.482 358.98 410.126 358.371Z"/>
	<path fill="#fff" d="M93.9258 452.28Q100.955 452.212 107.985 452.283L108.983 452.689C109.678 455.086 109.784 466.48 108.82 468.556C106.664 469.215 97.0134 468.868 94.8439 468.164C94.591 468.623 94.5148 468.92 94.406 469.424L94.2126 469.316C93.3872 467.599 93.9136 455.004 93.9258 452.28Z"/>
	<path fill="#fff" d="M107.985 452.283C108.906 452.263 109.906 452.129 110.739 452.575C111.437 454.476 111.124 466.892 110.897 469.435C105.421 469.586 99.8816 469.613 94.406 469.424C94.5148 468.92 94.591 468.623 94.8439 468.164C97.0134 468.868 106.664 469.215 108.82 468.556C109.784 466.48 109.678 455.086 108.983 452.689L107.985 452.283Z"/>
	<path fill="#fff" d="M253.716 0L258.197 0C262.996 2.71912 267.381 6.28426 271.667 9.73699Q275.616 12.9422 279.404 16.3365Q283.192 19.7307 286.81 23.3058Q290.428 26.8809 293.867 30.6284Q297.306 34.3759 300.558 38.2868Q303.81 42.1977 306.867 46.2627Q309.924 50.3278 312.779 54.5372Q315.634 58.7466 318.28 63.0904Q320.926 67.4342 323.357 71.902Q324.362 73.7478 325.33 75.6135Q326.298 77.4792 327.228 79.3639Q328.158 81.2487 329.05 83.1517Q329.942 85.0548 330.796 86.9754Q331.649 88.896 332.464 90.8334Q333.279 92.7707 334.055 94.7241Q334.83 96.6775 335.567 98.646Q336.303 100.615 337 102.598Q337.696 104.58 338.353 106.577Q339.009 108.574 339.626 110.583Q340.242 112.592 340.818 114.614Q341.394 116.635 341.929 118.668Q342.464 120.7 342.958 122.743Q343.452 124.786 343.905 126.838Q344.358 128.89 344.769 130.951Q345.181 133.013 345.551 135.081Q345.921 137.15 346.25 139.226Q346.578 141.302 346.865 143.384Q347.151 145.466 347.396 147.554Q347.641 149.641 347.844 151.733Q348.046 153.825 348.207 155.921Q348.368 158.016 348.486 160.115Q348.604 162.213 348.681 164.314Q348.757 166.414 348.791 168.516Q348.825 170.617 348.817 172.719Q348.809 174.82 348.758 176.922Q348.708 179.023 348.615 181.122Q348.523 183.222 348.388 185.32Q348.253 187.417 348.076 189.511Q347.899 191.606 347.68 193.696Q347.461 195.786 347.2 197.872Q346.939 199.957 346.636 202.037C344.891 213.851 341.974 225.204 338.615 236.644Q341.671 239.066 344.54 241.706Q347.409 244.346 350.076 247.19Q352.743 250.034 355.193 253.066Q357.644 256.099 359.864 259.304Q360.628 260.405 361.364 261.524Q362.1 262.644 362.809 263.781Q363.517 264.918 364.198 266.073Q364.878 267.227 365.53 268.397Q366.182 269.568 366.805 270.754Q367.428 271.941 368.022 273.142Q368.615 274.343 369.179 275.558Q369.743 276.774 370.277 278.003Q370.811 279.232 371.314 280.473Q371.818 281.715 372.291 282.969Q372.764 284.222 373.206 285.487Q373.648 286.752 374.058 288.028Q374.469 289.303 374.848 290.588Q375.228 291.873 375.575 293.167Q375.923 294.461 376.239 295.763Q376.554 297.066 376.838 298.375Q377.122 299.685 377.373 301.001Q377.625 302.317 377.844 303.639Q378.063 304.961 378.249 306.287Q378.435 307.614 378.589 308.945Q378.743 310.276 378.864 311.611Q378.985 312.945 379.073 314.282Q379.162 315.619 379.217 316.958Q379.273 318.297 379.295 319.636Q379.318 320.976 379.307 322.316Q379.297 323.656 379.253 324.995Q379.21 326.334 379.134 327.672Q379.057 329.01 378.948 330.345Q378.839 331.68 378.698 333.013Q378.556 334.345 378.381 335.674Q378.207 337.002 378 338.326Q377.793 339.65 377.553 340.968Q376.931 344.408 376.088 347.8Q375.246 351.193 374.186 354.524Q373.126 357.855 371.854 361.111Q370.582 364.366 369.102 367.533Q367.623 370.7 365.942 373.765Q364.262 376.83 362.387 379.781Q360.512 382.731 358.451 385.554Q356.39 388.378 354.151 391.062C351.734 394.001 349.01 397.572 345.831 399.671Q345.488 399.9 345.124 400.094Q344.76 400.288 344.378 400.444Q343.996 400.601 343.6 400.719Q343.205 400.836 342.8 400.913Q342.395 400.991 341.984 401.027Q341.573 401.064 341.16 401.059Q340.747 401.055 340.337 401.009Q339.927 400.963 339.524 400.876C337.015 400.356 334.779 398.664 333.667 396.343C332.197 393.276 332.093 388.722 331.62 385.333L328.203 361.058C327.622 356.957 327.32 352.501 326.294 348.502C325.92 347.042 325.341 345.612 324.467 344.377C323.432 342.914 321.92 342.252 320.21 341.866C317.807 341.322 315.263 341.449 312.814 341.45L300.268 341.501C297.611 341.515 294.79 341.724 292.165 341.308C293.245 348.214 294.768 355.059 296.148 361.91C297.058 366.428 298.916 372.132 298.38 376.731C298.116 379.007 297.112 380.865 295.264 382.251C293.81 383.342 292.05 383.832 290.26 383.993C286.279 384.353 282.052 384.086 278.041 384.087L254.487 384.096L233.399 384.1C229.328 384.101 225.092 384.368 221.052 383.872C218.485 383.556 216.561 382.659 214.988 380.522C214.159 379.396 213.481 377.931 213.418 376.517C213.232 372.299 214.725 367.476 215.557 363.327C217.02 356.038 218.585 348.753 219.867 341.43C213.813 341.815 193.991 340.467 190.072 342.351C188.431 343.14 187.016 344.711 186.284 346.367C184.925 349.445 184.828 353.682 184.366 356.997L180.814 382.061C180.249 386.03 180.015 390.613 178.85 394.43C178.304 396.217 177.668 397.787 176.184 399.004C174.318 400.535 172.155 401.322 169.732 401.002C164.517 400.314 158.831 392.518 155.693 388.483Q154.862 387.42 154.058 386.338Q153.254 385.255 152.477 384.152Q151.7 383.05 150.951 381.928Q150.202 380.807 149.48 379.667Q148.759 378.527 148.066 377.37Q147.374 376.212 146.71 375.038Q146.046 373.864 145.412 372.674Q144.778 371.484 144.173 370.278Q143.568 369.072 142.994 367.852Q142.419 366.632 141.875 365.397Q141.331 364.163 140.818 362.916Q140.305 361.669 139.823 360.409Q139.341 359.149 138.89 357.878Q138.44 356.606 138.021 355.324Q137.602 354.042 137.215 352.75Q136.828 351.458 136.474 350.157Q136.119 348.856 135.797 347.546Q135.474 346.236 135.185 344.919Q134.895 343.601 134.638 342.277Q134.382 340.953 134.158 339.623Q133.934 338.293 133.743 336.958Q133.552 335.623 133.395 334.283Q133.237 332.944 133.113 331.601Q132.989 330.258 132.898 328.912Q132.807 327.566 132.75 326.219Q132.693 324.871 132.669 323.522Q132.645 322.174 132.654 320.825Q132.664 319.476 132.707 318.128Q132.75 316.78 132.827 315.434Q132.904 314.087 133.014 312.743Q133.124 311.398 133.267 310.057Q133.41 308.716 133.587 307.379C137.064 280.131 151.446 253.514 173.287 236.646C172.625 233.711 171.609 230.805 170.808 227.899Q168.619 220.02 167.036 211.998Q166.445 208.98 165.944 205.946Q165.442 202.913 165.03 199.865Q164.618 196.818 164.296 193.76Q163.973 190.702 163.741 187.636Q163.509 184.57 163.367 181.498Q163.225 178.426 163.174 175.352Q163.123 172.277 163.162 169.203Q163.201 166.128 163.33 163.056Q163.46 159.983 163.68 156.916Q163.9 153.849 164.21 150.79Q164.52 147.73 164.92 144.682Q165.32 141.633 165.81 138.597Q166.299 135.561 166.878 132.541Q167.456 129.521 168.124 126.52Q168.791 123.518 169.546 120.537Q170.301 117.556 171.144 114.599Q172.137 111.116 173.249 107.669Q174.362 104.222 175.593 100.815Q176.825 97.409 178.173 94.0473Q179.522 90.6856 180.986 87.3726Q182.45 84.0596 184.028 80.7994Q185.606 77.5391 187.296 74.3354Q188.986 71.1317 190.785 67.9884Q192.585 64.8451 194.493 61.766Q196.4 58.687 198.413 55.6758Q200.426 52.6646 202.542 49.7249Q204.659 46.7853 206.875 43.9206Q209.092 41.056 211.406 38.2698Q213.721 35.4836 216.13 32.7793Q218.54 30.0749 221.041 27.4556Q223.543 24.8363 226.134 22.3051Q228.725 19.774 231.402 17.3341C238.143 11.1217 245.681 4.45743 253.716 0ZM219.383 323.964C226.665 324.825 236.196 324.263 243.699 324.255L292.323 324.272C294.339 318.569 295.94 312.719 297.966 307.025L315.321 253.005C319.421 240.271 323.891 227.551 326.881 214.498Q327.552 211.536 328.129 208.554Q328.706 205.572 329.188 202.573Q329.671 199.575 330.058 196.562Q330.445 193.55 330.737 190.526Q331.028 187.503 331.224 184.472Q331.42 181.441 331.52 178.406Q331.62 175.37 331.624 172.333Q331.627 169.296 331.535 166.26Q331.443 163.224 331.254 160.193Q331.066 157.161 330.782 154.137Q330.498 151.114 330.118 148.1Q329.738 145.087 329.263 142.087Q328.788 139.087 328.219 136.104Q327.649 133.12 326.986 130.156Q326.322 127.193 325.565 124.251Q324.808 121.31 323.958 118.394C321.521 110.061 318.424 102.049 315.121 94.0296C296.988 93.7298 278.82 93.9612 260.682 93.9632L196.962 94.0128Q196.18 95.7647 195.432 97.5319Q194.685 99.2991 193.973 101.081Q193.262 102.863 192.586 104.659Q191.91 106.454 191.271 108.263Q190.631 110.072 190.028 111.894Q189.425 113.715 188.858 115.548Q188.291 117.381 187.762 119.225Q187.232 121.07 186.739 122.924Q186.247 124.778 185.791 126.642Q185.336 128.506 184.918 130.379Q184.5 132.251 184.12 134.132Q183.739 136.013 183.397 137.9Q183.054 139.788 182.75 141.683Q182.445 143.577 182.178 145.477Q181.912 147.377 181.683 149.282Q181.455 151.187 181.265 153.097Q181.074 155.006 180.923 156.918Q180.771 158.831 180.657 160.747Q180.544 162.662 180.469 164.579Q180.393 166.496 180.357 168.415Q180.32 170.333 180.322 172.252Q180.324 174.17 180.364 176.089Q180.404 178.007 180.483 179.924Q180.562 181.841 180.679 183.756Q180.796 185.671 180.952 187.584Q181.107 189.496 181.301 191.405Q181.495 193.314 181.727 195.219Q181.959 197.123 182.229 199.023Q182.499 200.922 182.807 202.816Q183.116 204.71 183.462 206.597Q183.808 208.484 184.192 210.364Q184.576 212.244 184.997 214.116C187.593 225.638 191.44 236.845 195.056 248.076L209.093 291.701L215.809 312.569C217.021 316.338 218.414 320.13 219.383 323.964ZM205.545 76.8663C222.537 76.3948 239.622 76.7463 256.625 76.7511L288.518 76.7589C294.461 76.7613 300.469 76.5877 306.402 76.8528C294.241 56.9001 282.068 40.8314 263.993 25.6899C261.597 23.6826 258.637 20.569 255.725 19.4503C235.082 35.4043 218.741 54.4009 205.545 76.8663ZM237.483 341.488C235.32 349.845 234.364 358.509 232.22 366.867L274.256 366.922L279.662 366.963C277.848 358.582 276.129 350.052 274.706 341.597C266.017 341.279 257.266 341.469 248.571 341.499C244.963 341.511 241.054 341.878 237.483 341.488ZM164.801 371.976C165.41 369.435 165.729 366.837 166.098 364.253L167.799 352.034C169.119 342.757 170.708 335.345 178.619 329.356C185.545 324.113 193.421 324.083 201.697 324.283C197.949 315.557 180.68 256.419 179.085 254.76C178.944 254.614 178.75 254.531 178.583 254.416C160.319 271.984 150.248 295.038 149.741 320.382C149.347 340.072 154.999 355.316 164.801 371.976ZM332.975 254.324C330.672 260.482 328.817 266.864 326.807 273.126L316.2 306.193C314.287 312.152 312.628 318.425 310.281 324.219C320.378 324.243 328.547 324.196 336.168 331.914C342.093 337.914 343.166 344.834 344.294 352.833L346.047 365.06C346.355 367.455 346.639 369.831 347.36 372.146C349.949 366.589 353.247 361.532 355.576 355.807Q356.363 353.849 357.06 351.858Q357.756 349.866 358.361 347.844Q358.966 345.823 359.478 343.776Q359.989 341.729 360.407 339.66Q360.825 337.592 361.147 335.507Q361.47 333.422 361.697 331.324Q361.924 329.226 362.054 327.12Q362.185 325.014 362.22 322.904Q362.254 320.795 362.192 318.685Q362.129 316.576 361.971 314.472Q361.812 312.368 361.557 310.274Q361.303 308.179 360.953 306.098Q360.603 304.017 360.158 301.955Q359.713 299.892 359.174 297.852Q358.635 295.812 358.003 293.799Q357.372 291.785 356.649 289.803Q355.852 287.629 354.948 285.497Q354.044 283.365 353.036 281.28Q352.028 279.196 350.917 277.164Q349.807 275.132 348.597 273.157Q347.387 271.183 346.081 269.271Q344.775 267.358 343.375 265.513Q341.976 263.668 340.487 261.895Q338.998 260.121 337.423 258.424C336.322 257.237 334.621 255.107 333.195 254.407C333.125 254.372 333.048 254.351 332.975 254.324Z"/>
	<path fill="#fff" d="M251.789 119.653Q253.04 119.55 254.294 119.509Q255.548 119.467 256.803 119.488Q258.058 119.508 259.31 119.589Q260.562 119.671 261.809 119.814Q263.056 119.957 264.294 120.161Q265.533 120.365 266.759 120.629Q267.986 120.893 269.199 121.217Q270.411 121.541 271.606 121.924Q272.801 122.307 273.976 122.749Q275.151 123.19 276.303 123.688Q277.454 124.186 278.58 124.74Q279.706 125.295 280.804 125.903Q281.901 126.512 282.968 127.174Q284.034 127.835 285.067 128.548Q286.099 129.262 287.096 130.024Q288.092 130.787 289.05 131.598Q290.008 132.409 290.925 133.266Q291.842 134.122 292.716 135.023Q293.589 135.924 294.418 136.866Q295.247 137.809 296.028 138.791Q296.81 139.773 297.542 140.792Q298.275 141.811 298.956 142.864Q299.638 143.918 300.267 145.004Q300.896 146.09 301.471 147.205Q302.047 148.32 302.566 149.463Q303.086 150.605 303.55 151.771Q304.013 152.938 304.418 154.125Q304.824 155.313 305.171 156.519Q305.517 157.725 305.805 158.947Q306.092 160.168 306.319 161.402Q306.546 162.637 306.713 163.881Q306.879 165.124 306.984 166.375Q307.089 167.626 307.133 168.88Q307.177 170.134 307.159 171.389Q307.141 172.644 307.062 173.896Q306.983 175.148 306.842 176.395Q306.702 177.643 306.5 178.881Q306.299 180.12 306.037 181.347Q305.775 182.574 305.453 183.787Q305.131 185 304.751 186.196Q304.37 187.392 303.931 188.568Q303.492 189.743 302.996 190.896Q302.5 192.049 301.948 193.176Q301.396 194.303 300.789 195.401Q300.183 196.5 299.523 197.568Q298.864 198.635 298.152 199.669Q297.441 200.703 296.68 201.701Q295.919 202.699 295.11 203.658Q294.301 204.618 293.446 205.536Q292.591 206.455 291.692 207.331Q290.793 208.206 289.852 209.037Q288.912 209.867 287.931 210.651Q286.951 211.434 285.933 212.168Q284.916 212.903 283.863 213.586Q282.811 214.27 281.726 214.901Q280.641 215.532 279.527 216.11Q278.413 216.687 277.272 217.209Q276.13 217.731 274.965 218.197Q273.8 218.662 272.613 219.07Q271.426 219.478 270.221 219.827Q269.015 220.176 267.794 220.465Q266.573 220.755 265.339 220.985Q264.105 221.214 262.862 221.383Q261.618 221.551 260.368 221.659Q259.115 221.767 257.857 221.813Q256.6 221.859 255.342 221.843Q254.084 221.828 252.829 221.75Q251.573 221.673 250.323 221.534Q249.073 221.395 247.831 221.194Q246.589 220.994 245.358 220.733Q244.127 220.472 242.911 220.15Q241.695 219.829 240.496 219.449Q239.297 219.068 238.118 218.629Q236.939 218.19 235.783 217.693Q234.627 217.197 233.497 216.644Q232.367 216.092 231.265 215.484Q230.164 214.877 229.093 214.216Q228.023 213.555 226.986 212.842Q225.949 212.13 224.949 211.367Q223.948 210.604 222.987 209.793Q222.025 208.982 221.104 208.125Q220.183 207.268 219.306 206.366Q218.428 205.465 217.596 204.522Q216.764 203.578 215.979 202.595Q215.194 201.612 214.459 200.591Q213.723 199.571 213.039 198.515Q212.354 197.46 211.722 196.372Q211.091 195.284 210.513 194.166Q209.935 193.049 209.413 191.904Q208.891 190.76 208.426 189.591Q207.961 188.422 207.554 187.232Q207.146 186.042 206.798 184.833Q206.45 183.624 206.161 182.399Q205.873 181.175 205.645 179.938Q205.417 178.7 205.25 177.454Q205.083 176.207 204.978 174.953Q204.873 173.699 204.829 172.442Q204.785 171.185 204.803 169.927Q204.821 168.669 204.901 167.414Q204.981 166.158 205.123 164.908Q205.264 163.658 205.467 162.417Q205.67 161.175 205.933 159.945Q206.196 158.715 206.52 157.499Q206.844 156.284 207.226 155.085Q207.609 153.887 208.051 152.709Q208.492 151.531 208.991 150.376Q209.489 149.221 210.044 148.092Q210.599 146.963 211.208 145.863Q211.818 144.762 212.481 143.693Q213.144 142.624 213.858 141.588Q214.573 140.553 215.338 139.554Q216.102 138.555 216.915 137.595Q217.728 136.635 218.587 135.716Q219.446 134.797 220.349 133.921Q221.252 133.045 222.197 132.215Q223.142 131.384 224.127 130.602Q225.111 129.819 226.133 129.085Q227.155 128.351 228.212 127.669Q229.269 126.986 230.358 126.357Q231.447 125.727 232.565 125.151Q233.684 124.576 234.83 124.056Q235.975 123.536 237.145 123.073Q238.315 122.61 239.506 122.205Q240.697 121.8 241.906 121.454Q243.116 121.108 244.341 120.822Q245.566 120.536 246.803 120.311Q248.041 120.085 249.288 119.921Q250.535 119.756 251.789 119.653ZM257.376 204.715Q258.211 204.681 259.043 204.605Q259.875 204.53 260.702 204.414Q261.529 204.298 262.35 204.142Q263.17 203.986 263.982 203.789Q264.794 203.593 265.596 203.357Q266.397 203.121 267.186 202.846Q267.975 202.571 268.749 202.258Q269.524 201.945 270.282 201.594Q271.04 201.243 271.78 200.856Q272.52 200.468 273.24 200.045Q273.96 199.621 274.659 199.163Q275.357 198.705 276.033 198.213Q276.708 197.721 277.358 197.197Q278.009 196.673 278.632 196.117Q279.256 195.562 279.852 194.976Q280.448 194.391 281.014 193.777Q281.581 193.163 282.117 192.522Q282.652 191.881 283.156 191.214Q283.659 190.548 284.13 189.857Q284.6 189.167 285.036 188.454Q285.472 187.742 285.872 187.008Q286.273 186.275 286.637 185.523Q287.001 184.772 287.328 184.003Q287.655 183.234 287.943 182.45Q288.232 181.666 288.482 180.869Q288.732 180.072 288.942 179.264Q289.153 178.455 289.324 177.637Q289.494 176.82 289.625 175.995Q289.755 175.169 289.845 174.339Q289.935 173.508 289.984 172.674Q290.033 171.84 290.041 171.005Q290.049 170.17 290.016 169.335Q289.983 168.5 289.909 167.668Q289.836 166.836 289.721 166.009Q289.607 165.181 289.452 164.36Q289.297 163.539 289.102 162.727Q288.907 161.915 288.673 161.113Q288.438 160.311 288.165 159.522Q287.891 158.732 287.579 157.957Q287.267 157.182 286.918 156.424Q286.568 155.665 286.182 154.924Q285.796 154.183 285.374 153.463Q284.951 152.742 284.495 152.042Q284.038 151.343 283.547 150.667Q283.056 149.991 282.533 149.339Q282.01 148.688 281.455 148.063Q280.901 147.439 280.316 146.842Q279.732 146.245 279.119 145.677Q278.506 145.11 277.866 144.573Q277.226 144.036 276.56 143.531Q275.895 143.027 275.205 142.555Q274.515 142.084 273.804 141.646Q273.092 141.209 272.359 140.807Q271.627 140.406 270.876 140.04Q270.124 139.675 269.356 139.347Q268.588 139.019 267.805 138.729Q267.021 138.439 266.224 138.187Q265.428 137.936 264.62 137.724Q263.812 137.512 262.994 137.34Q262.177 137.168 261.352 137.036Q260.527 136.904 259.697 136.813Q258.866 136.721 258.032 136.671Q257.198 136.621 256.363 136.611Q255.528 136.602 254.693 136.633Q253.856 136.665 253.022 136.737Q252.188 136.81 251.359 136.923Q250.529 137.037 249.706 137.191Q248.883 137.345 248.069 137.539Q247.255 137.733 246.451 137.968Q245.647 138.202 244.856 138.475Q244.064 138.748 243.287 139.06Q242.51 139.372 241.749 139.721Q240.989 140.071 240.246 140.458Q239.503 140.844 238.781 141.267Q238.058 141.689 237.357 142.147Q236.656 142.605 235.978 143.096Q235.3 143.587 234.647 144.112Q233.994 144.636 233.368 145.191Q232.742 145.747 232.144 146.333Q231.545 146.918 230.977 147.533Q230.408 148.147 229.87 148.789Q229.332 149.43 228.826 150.098Q228.32 150.765 227.848 151.456Q227.376 152.147 226.938 152.861Q226.5 153.575 226.098 154.309Q225.696 155.043 225.33 155.796Q224.964 156.549 224.636 157.32Q224.308 158.09 224.018 158.875Q223.728 159.661 223.477 160.459Q223.226 161.258 223.014 162.068Q222.802 162.878 222.631 163.697Q222.459 164.517 222.328 165.344Q222.197 166.171 222.107 167.003Q222.017 167.836 221.968 168.671Q221.918 169.507 221.91 170.344Q221.902 171.181 221.935 172.018Q221.968 172.855 222.042 173.689Q222.116 174.522 222.231 175.352Q222.346 176.181 222.501 177.004Q222.657 177.826 222.853 178.64Q223.048 179.454 223.284 180.258Q223.519 181.061 223.794 181.852Q224.068 182.643 224.382 183.42Q224.695 184.196 225.046 184.956Q225.397 185.716 225.785 186.458Q226.172 187.2 226.596 187.922Q227.02 188.644 227.479 189.345Q227.938 190.045 228.43 190.722Q228.923 191.399 229.448 192.051Q229.973 192.703 230.53 193.328Q231.087 193.953 231.673 194.551Q232.26 195.148 232.876 195.716Q233.491 196.283 234.133 196.82Q234.776 197.357 235.444 197.861Q236.112 198.366 236.804 198.837Q237.496 199.308 238.211 199.745Q238.925 200.181 239.66 200.582Q240.395 200.983 241.149 201.348Q241.902 201.712 242.673 202.039Q243.444 202.366 244.23 202.655Q245.016 202.943 245.815 203.193Q246.614 203.443 247.424 203.653Q248.235 203.863 249.054 204.033Q249.874 204.203 250.701 204.333Q251.528 204.463 252.361 204.551Q253.193 204.64 254.029 204.688Q254.865 204.736 255.702 204.743Q256.539 204.749 257.376 204.715Z"/>
	<path fill="#fff" d="M281.626 247.469Q290.138 247.361 298.651 247.456C298.668 253.165 298.795 258.903 298.578 264.608C292.981 265.237 287.136 264.661 281.509 264.717C281.587 258.966 281.447 253.221 281.626 247.469Z"/>
	<path fill="#fff" d="M247.424 247.455Q255.96 247.385 264.496 247.453Q264.596 256.029 264.468 264.605C258.917 265.433 252.963 264.473 247.346 264.784C247.662 259.061 247.471 253.191 247.424 247.455Z"/>
	<path fill="#fff" d="M213.332 247.38C218.968 247.643 224.693 247.449 230.338 247.46C230.366 253.206 230.417 258.934 230.251 264.678C224.612 264.95 218.866 264.375 213.264 264.809L213.332 247.38Z"/>
	<path fill="#fff" d="M419.37 420.672C423.278 401.411 431.349 385.501 445.867 372.011C464.558 354.643 487.019 348.98 512 349.932L512 367.034C507.23 367.019 502.435 366.905 497.68 367.33C481.734 368.755 466.984 375.249 455.539 386.561Q453.879 388.202 452.335 389.954Q450.792 391.705 449.373 393.559Q447.953 395.413 446.665 397.36Q445.377 399.307 444.226 401.338Q443.074 403.369 442.066 405.474Q441.057 407.58 440.196 409.75Q439.334 411.919 438.624 414.143Q437.914 416.367 437.359 418.635C436.617 421.667 436.204 424.76 435.656 427.83C441.83 431.607 447.339 435.955 452.206 441.328C453.806 443.094 455.224 445.015 456.811 446.784C460.648 443.818 464.501 440.918 468.683 438.448C481.398 430.94 497.166 426.276 512 426.683L512 443.752C507.348 444.123 502.8 444.398 498.205 445.285Q496.819 445.56 495.445 445.894Q494.072 446.227 492.714 446.618Q491.356 447.009 490.015 447.456Q488.674 447.904 487.354 448.407Q486.033 448.911 484.735 449.47Q483.437 450.028 482.163 450.641Q480.89 451.254 479.643 451.919Q478.396 452.585 477.179 453.303Q475.961 454.02 474.775 454.788Q473.589 455.557 472.436 456.374Q471.283 457.191 470.165 458.056Q469.047 458.921 467.967 459.833Q466.887 460.744 465.846 461.7Q464.805 462.656 463.805 463.655Q462.805 464.654 461.848 465.694Q460.891 466.734 459.979 467.813C448.701 481.011 444.611 495.019 443.668 512L426.699 512C427.032 497.104 430.347 483.078 437.813 470.067C439.882 466.461 442.369 463.186 444.547 459.663C440.781 454.19 436.772 449.343 431.41 445.332C420.278 437.006 406.619 433.967 392.949 436.04C379.32 438.106 367.669 445.621 359.595 456.683C360.533 459.124 361.71 461.461 362.654 463.9Q363.705 466.594 364.498 469.374Q365.292 472.154 365.823 474.996Q366.353 477.839 366.615 480.718Q366.877 483.598 366.868 486.489C361.244 486.813 355.537 486.212 349.948 486.651Q349.9 484.456 349.666 482.273Q349.432 480.091 349.013 477.936Q348.594 475.781 347.993 473.669Q347.392 471.558 346.614 469.505Q346.237 468.536 345.811 467.586Q345.386 466.637 344.914 465.71Q344.442 464.783 343.925 463.881Q343.407 462.978 342.846 462.103Q342.284 461.227 341.68 460.381Q341.075 459.535 340.429 458.719Q339.783 457.904 339.097 457.122Q338.412 456.34 337.688 455.592Q336.964 454.845 336.204 454.135Q335.444 453.425 334.65 452.754Q333.855 452.082 333.028 451.451Q332.201 450.82 331.344 450.231Q330.487 449.642 329.601 449.096Q328.716 448.55 327.804 448.049Q326.893 447.548 325.957 447.093Q325.022 446.638 324.065 446.23C313.108 441.498 301.212 442.016 290.239 446.32C289.619 453.681 290.173 461.318 290.011 468.728C284.457 468.878 278.559 468.386 273.061 468.965C272.996 446.077 272.669 423.114 273.115 400.234C278.699 400.611 284.473 400.326 290.077 400.332L290.094 428.096Q296.901 426.175 303.955 425.67C321.408 424.455 336.02 431.217 348.881 442.451C353.752 436.438 359.913 431.348 366.587 427.458C382.733 418.046 401.406 415.955 419.37 420.672Z"/>
	<path fill="#fff" d="M0 349.831C6.53237 349.772 13.0846 349.74 19.5791 350.544Q21.2935 350.763 22.9976 351.052Q24.7016 351.34 26.3925 351.698Q28.0835 352.056 29.7584 352.482Q31.4333 352.909 33.0895 353.403Q34.7457 353.897 36.3804 354.458Q38.015 355.02 39.6255 355.647Q41.236 356.274 42.8196 356.967Q44.4032 357.659 45.9573 358.415Q47.5114 359.171 49.0334 359.99Q50.5554 360.809 52.0428 361.69Q53.5302 362.57 54.9805 363.51Q56.4308 364.45 57.8417 365.448Q59.2525 366.447 60.6215 367.502Q61.9906 368.557 63.3155 369.666Q64.6404 370.776 65.919 371.939Q67.1977 373.102 68.4279 374.316C81.4519 387.117 88.9259 402.689 92.5615 420.425C96.7822 419.633 101.014 418.734 105.299 418.384Q106.741 418.266 108.187 418.209Q109.632 418.152 111.079 418.157Q112.526 418.161 113.971 418.227Q115.416 418.294 116.858 418.421Q118.299 418.549 119.733 418.737Q121.168 418.926 122.593 419.175Q124.018 419.425 125.431 419.735Q126.844 420.044 128.243 420.414Q129.642 420.784 131.024 421.212Q132.405 421.641 133.768 422.128Q135.13 422.615 136.47 423.16Q137.811 423.704 139.127 424.305Q140.443 424.906 141.732 425.563Q143.021 426.219 144.282 426.93Q145.542 427.641 146.771 428.404Q148 429.168 149.195 429.983C151.857 431.792 154.55 433.818 156.888 436.033C159.098 438.127 161.122 440.456 163.395 442.476C172.919 431.965 188.367 426.271 202.295 425.643C208.883 425.346 215.635 426.356 221.964 428.173C221.671 418.922 221.839 409.571 221.948 400.314C227.227 400.417 232.514 400.27 237.79 400.436C237.649 400.621 237.183 401.101 237.134 401.294C236.831 402.484 237.34 410.905 237.343 412.998L237.32 461.763C237.318 462.641 237.396 467.458 236.894 467.841C236.845 467.878 236.365 467.986 236.264 468.002C232.285 468.629 226.675 466.892 222.793 468.077C222.605 468.366 222.508 468.53 222.416 468.869L221.979 468.631C221.423 461.226 222.239 453.715 221.846 446.297C210.126 441.963 198.334 441.404 186.752 446.728Q185.826 447.153 184.921 447.623Q184.017 448.093 183.137 448.607Q182.256 449.121 181.402 449.677Q180.548 450.233 179.723 450.831Q178.897 451.428 178.101 452.065Q177.306 452.703 176.542 453.378Q175.779 454.053 175.05 454.765Q174.321 455.477 173.627 456.224Q172.934 456.971 172.277 457.751Q171.621 458.531 171.004 459.342Q170.387 460.154 169.811 460.994Q169.234 461.834 168.699 462.702Q168.165 463.57 167.673 464.463Q167.181 465.356 166.734 466.272Q166.287 467.187 165.885 468.124Q165.483 469.061 165.128 470.016C163.147 475.377 162.405 480.854 161.947 486.517C159.541 486.611 146.446 487.166 145.301 486.115C144.944 484.536 145.189 482.735 145.321 481.119Q145.699 476.784 146.672 472.544Q147.645 468.303 149.194 464.237C150.194 461.648 151.432 459.159 152.382 456.55C143.136 445.087 131.921 437.292 116.929 435.693C103.245 434.233 89.645 437.871 78.9148 446.576C74.3552 450.275 70.6039 454.69 67.5169 459.673C67.5573 459.75 67.5968 459.829 67.6381 459.906C69.5722 463.527 72.3405 466.755 74.39 470.362C81.7005 483.228 84.9749 497.289 85.2681 512L68.3625 512C67.9999 508.268 67.8632 504.552 67.2656 500.839Q66.8691 498.42 66.2989 496.036Q65.7287 493.652 64.9877 491.316Q64.2468 488.979 63.339 486.702Q62.4312 484.425 61.3614 482.22Q60.2915 480.015 59.0651 477.892Q57.8387 475.77 56.4622 473.742Q55.0858 471.714 53.5664 469.79Q52.047 467.867 50.3926 466.058Q49.4566 465.031 48.4795 464.043Q47.5024 463.055 46.4859 462.108Q45.4695 461.161 44.4152 460.256Q43.361 459.351 42.2708 458.49Q41.1806 457.628 40.0562 456.812Q38.9318 455.996 37.7751 455.226Q36.6184 454.456 35.4314 453.734Q34.2443 453.012 33.0288 452.339Q31.8133 451.666 30.5713 451.043Q29.3294 450.42 28.0632 449.848Q26.7969 449.276 25.5084 448.756Q24.2199 448.236 22.9114 447.769Q21.6028 447.302 20.2762 446.889Q18.9497 446.475 17.6074 446.116Q16.2652 445.757 14.9094 445.453Q13.5536 445.15 12.1866 444.901C8.14725 444.199 4.0852 444.046 0 443.84L0 426.56C22.1924 427.039 37.7849 433.646 55.25 446.9C61.0115 439.059 67.7679 432.8 76.1942 427.885Q76.049 426.462 75.8437 425.047Q75.6385 423.632 75.3736 422.226Q75.1086 420.821 74.7845 419.428Q74.4604 418.035 74.0777 416.657Q73.695 415.279 73.2543 413.919Q72.8137 412.558 72.3159 411.217Q71.8181 409.877 71.264 408.558Q70.71 407.24 70.1007 405.946Q69.4914 404.652 68.8279 403.385Q68.1645 402.118 67.448 400.881Q66.7316 399.643 65.9635 398.437Q65.1953 397.23 64.3768 396.057Q63.5584 394.885 62.6911 393.748Q61.8237 392.611 60.9091 391.511Q59.9945 390.412 59.0342 389.352Q58.0739 388.292 57.0696 387.274C46.987 377.045 33.1381 369.623 18.8092 367.757C12.5441 366.942 6.29951 367.065 0 367.02L0 349.831Z"/>
	<path fill="#fff" d="M477.956 392.405C482.46 392.705 487.063 392.391 491.586 392.522C491.997 392.657 492.696 392.737 492.874 393.142C493.674 394.963 493.761 406.413 493.157 408.513C493.123 408.631 493.052 408.735 492.999 408.845C491.137 408.865 479.588 408.553 478.679 409.121L478.416 409.825L478.157 409.728C477.447 408.318 477.933 394.988 477.956 392.405Z"/>
	<path fill="#fff" d="M491.586 392.522C492.585 392.499 493.769 392.346 494.726 392.644C495.399 396.528 495.126 405.492 494.911 409.703C489.427 410 483.907 409.864 478.416 409.825L478.679 409.121C479.588 408.553 491.137 408.865 492.999 408.845C493.052 408.735 493.123 408.631 493.157 408.513C493.761 406.413 493.674 394.963 492.874 393.142C492.696 392.737 491.997 392.657 491.586 392.522Z"/>
	<path fill="#fff" d="M494.999 298.576C500.659 298.556 506.347 298.436 512 298.708L512 315.799C506.317 315.961 500.591 315.65 494.921 316.016C495.166 310.238 494.974 304.365 494.999 298.576Z"/>
	<path fill="#fff" d="M0 315.686C5.67063 315.628 11.372 315.586 17.0409 315.758Q17.0821 324.342 17.0257 332.926C11.3587 332.899 5.66117 333.099 0 332.94L0 315.686Z"/>
	<path fill="#fff" d="M315.677 495.053C320.235 494.754 325.017 494.743 329.578 494.987L331.329 495.592C331.302 496.294 331.373 495.734 331.201 496.255C331.194 496.276 331.404 509.238 331.198 511.364L331.78 511.576C332.348 510.969 332.304 510.303 332.274 509.499C332.166 506.508 331.654 499.444 332.342 496.849L332.221 496.866L332.571 497.085C332.569 497.182 332.563 497.278 332.564 497.375C332.567 497.835 332.557 497.665 332.724 498.165C332.958 502.679 333.119 507.494 332.764 512L315.794 512C315.662 506.363 316.024 500.677 315.677 495.053Z"/>
	<path fill="#fff" d="M237.79 400.436C238.362 400.427 238.353 400.409 238.789 400.774C239.329 403.145 238.955 405.898 238.954 408.333L238.982 421.023C238.985 436.914 239.322 452.883 238.93 468.766Q230.674 468.947 222.416 468.869C222.508 468.53 222.605 468.366 222.793 468.077C226.675 466.892 232.285 468.629 236.264 468.002C236.365 467.986 236.845 467.878 236.894 467.841C237.396 467.458 237.318 462.641 237.32 461.763L237.343 412.998C237.34 410.905 236.831 402.484 237.134 401.294C237.183 401.101 237.649 400.621 237.79 400.436Z"/>
	<path fill="#fff" d="M329.578 494.987C330.54 494.949 331.57 494.794 332.472 495.184C333.009 496.072 332.792 497.151 332.724 498.165C332.557 497.665 332.567 497.835 332.564 497.375C332.563 497.278 332.569 497.182 332.571 497.085L332.221 496.866L332.342 496.849C331.654 499.444 332.166 506.508 332.274 509.499C332.304 510.303 332.348 510.969 331.78 511.576L331.198 511.364C331.404 509.238 331.194 496.276 331.201 496.255C331.373 495.734 331.302 496.294 331.329 495.592L329.578 494.987Z"/>
</svg>
